<svg width="15" height="15" viewBox="0 0 15 15" fill="none" xmlns="http://www.w3.org/2000/svg">
<path d="M1.4397 5.24022C1.62945 5.37412 2.20142 5.77179 3.15564 6.43304C4.1099 7.09428 4.84092 7.60342 5.34874 7.96049C5.40453 7.99963 5.52307 8.08471 5.7044 8.21585C5.88576 8.34708 6.03646 8.45313 6.15637 8.53402C6.27637 8.61487 6.42144 8.70559 6.59172 8.806C6.76194 8.90633 6.9224 8.98179 7.07307 9.03175C7.22376 9.08212 7.36326 9.10707 7.49159 9.10707H7.5H7.50844C7.63677 9.10707 7.77632 9.08209 7.92702 9.03175C8.07763 8.98179 8.23823 8.90624 8.40831 8.806C8.57847 8.70547 8.72354 8.61485 8.84354 8.53402C8.96354 8.45313 9.11412 8.34708 9.29554 8.21585C9.47684 8.08459 9.59552 7.99963 9.65132 7.96049C10.1646 7.60342 11.4705 6.69658 13.5687 5.24005C13.976 4.95557 14.3164 4.61231 14.5897 4.21051C14.8633 3.80887 15 3.38754 15 2.94674C15 2.57839 14.8674 2.26307 14.6023 2.00081C14.3372 1.7385 14.0233 1.60742 13.6607 1.60742H1.33923C0.909571 1.60742 0.578919 1.75249 0.347334 2.04262C0.115778 2.33282 0 2.69554 0 3.13077C0 3.48233 0.153511 3.86329 0.460385 4.27342C0.76723 4.68359 1.09378 5.00588 1.4397 5.24022Z" fill="#2A2A2A"/>
<path d="M14.1628 6.13592C12.3327 7.37465 10.943 8.33734 9.99444 9.0238C9.67636 9.25809 9.41833 9.44097 9.22017 9.57203C9.02201 9.70317 8.75847 9.83709 8.42917 9.97374C8.09998 10.1106 7.7932 10.1788 7.50855 10.1788H7.50001H7.4916C7.20701 10.1788 6.90005 10.1106 6.57086 9.97374C6.24168 9.83709 5.97796 9.70317 5.77985 9.57203C5.58181 9.44097 5.32369 9.25809 5.00565 9.0238C4.25226 8.47139 2.86556 7.50863 0.845509 6.13592C0.527347 5.92401 0.24554 5.68111 0 5.40771V12.0537C0 12.4223 0.131082 12.7374 0.393392 12.9997C0.655644 13.2621 0.970991 13.3932 1.33932 13.3932H13.6608C14.029 13.3932 14.3443 13.2621 14.6066 12.9997C14.869 12.7373 15 12.4223 15 12.0537V5.40771C14.76 5.67545 14.4811 5.91835 14.1628 6.13592Z" fill="#2A2A2A"/>
</svg>
