<svg width="481" height="542" viewBox="0 0 481 542" fill="none" xmlns="http://www.w3.org/2000/svg">
<path d="M480.351 513.9L456.408 373.727C453.828 358.625 443.114 346.493 428.445 342.068L363.866 322.582C362.529 306.796 356.056 291.903 345.284 280.114C336.668 270.685 325.831 263.819 313.885 260.031C315.929 257.762 317.824 255.501 319.563 253.29C334.921 233.758 343.143 212.24 345.236 197.556H350.218C363.175 197.556 373.718 187.015 373.718 174.056V162.01C373.718 153.362 368.853 145.525 361.537 141.459V112.49C361.537 108.113 357.988 104.564 353.611 104.564C349.234 104.564 345.686 108.112 345.686 112.49V145.011C342.599 145.547 338.916 146.473 335.149 148.059C334.763 148.2 334.388 148.363 334.033 148.558C333.182 148.946 332.33 149.355 331.481 149.816V85.945C331.481 68.2992 317.126 53.944 299.48 53.944H277.604C270.058 53.944 262.687 56.5729 256.846 61.3488L254.699 63.1036C250.756 66.3277 245.779 68.1036 240.685 68.1036C235.591 68.1036 230.613 66.3277 226.67 63.1036L224.524 61.3488C218.683 56.574 211.312 53.944 203.766 53.944H181.888C164.242 53.944 149.887 68.2992 149.887 85.945V149.816C149.038 149.355 148.186 148.946 147.335 148.558C146.98 148.363 146.606 148.2 146.22 148.059C142.452 146.473 138.768 145.547 135.683 145.011V62.7812C135.683 37.1173 156.562 16.2379 182.226 16.2379H299.141C324.805 16.2379 345.684 37.1173 345.684 62.7812V75.24C345.684 79.6173 349.233 83.166 353.609 83.166C357.985 83.166 361.535 79.6184 361.535 75.24V62.7812C361.535 28.3774 333.544 0.386902 299.141 0.386902H182.226C147.821 0.386902 119.832 28.3774 119.832 62.7812V141.46C112.516 145.526 107.651 153.362 107.651 162.011V174.057C107.651 187.016 118.193 197.557 131.151 197.557H136.133C138.225 212.241 146.448 233.759 161.805 253.291C163.542 255.5 165.437 257.759 167.479 260.025C140.016 268.748 119.988 293.44 117.503 322.582L52.9217 342.068C38.2526 346.493 27.538 358.625 24.9587 373.727L15.2357 430.65C14.4989 434.965 17.3996 439.059 21.7135 439.796C26.0264 440.535 30.1226 437.633 30.8604 433.318L40.5835 376.395C42.1437 367.258 48.6258 359.92 57.5 357.243L117.23 339.221V354.899C103.539 357.419 91.889 366.823 87.0909 379.854C85.8171 383.313 85.0253 386.934 84.7378 390.617L78.9651 464.714C78.5296 470.295 80.4609 475.853 84.2611 479.96C88.0613 484.068 93.4513 486.425 99.0486 486.425H108.93C113.308 486.425 116.856 482.877 116.856 478.499C116.856 474.121 113.308 470.574 108.93 470.574H99.0486C97.8551 470.574 96.7072 470.073 95.8964 469.196C95.0866 468.32 94.6754 467.136 94.7685 465.947L100.541 391.85C100.716 389.618 101.194 387.425 101.966 385.331C105.304 376.266 114.319 370.128 124.401 370.057L125.706 370.048C125.767 370.047 125.828 370.047 125.888 370.047C135.686 370.047 144.359 375.603 148.018 384.24C149.044 386.662 149.668 389.222 149.873 391.85L155.648 465.948C155.74 467.136 155.329 468.32 154.519 469.197C153.709 470.072 152.56 470.574 151.367 470.574H141.485C137.108 470.574 133.559 474.122 133.559 478.499C133.559 482.876 137.108 486.425 141.485 486.425H151.367C156.964 486.425 162.355 484.069 166.154 479.96C169.956 475.851 171.887 470.294 171.451 464.715L165.677 390.617C165.338 386.281 164.308 382.054 162.613 378.055C157.392 365.733 146.228 357.165 133.08 354.847V334.439L160.326 326.218C162.804 331.439 167.717 342.721 177.447 367.041C187.254 391.58 199.443 423.034 211.133 453.611C211.217 453.868 211.313 454.118 211.421 454.364C219.222 474.777 226.79 494.771 233.262 512.018C234.423 515.111 237.379 517.16 240.683 517.16C243.986 517.16 246.943 515.111 248.104 512.018C254.575 494.771 262.143 474.777 269.945 454.364C270.054 454.118 270.149 453.867 270.233 453.611C281.914 423.052 294.097 391.618 303.9 367.087C313.643 342.735 318.559 331.443 321.039 326.218L348.284 334.439V381.252C329.407 384.919 315.108 401.568 315.108 421.502C315.108 444.114 333.504 462.512 356.117 462.512C378.73 462.512 397.127 444.115 397.127 421.502C397.127 401.633 382.922 385.024 364.135 381.285V339.222L423.867 357.244C432.741 359.921 439.222 367.259 440.783 376.396L464.726 516.569C465.124 518.893 464.505 521.166 462.984 522.968C461.464 524.77 459.328 525.763 456.969 525.763H24.3964C22.038 525.763 19.9027 524.771 18.3816 522.968C16.8615 521.166 16.242 518.894 16.6395 516.569L24.5412 470.309C25.278 465.994 22.3774 461.9 18.0634 461.163C13.7505 460.423 9.65431 463.327 8.91647 467.641L1.01477 513.901C-0.163872 520.805 1.75051 527.836 6.26636 533.19C10.7843 538.543 17.3922 541.613 24.3964 541.613H456.969C463.974 541.613 470.582 538.543 475.099 533.189C479.615 527.835 481.53 520.804 480.351 513.9ZM345.779 161.158C350.002 160.105 353.392 160.124 353.43 160.125C354.796 160.143 356.124 159.823 357.303 159.205C357.656 160.084 357.865 161.027 357.865 162.011V174.057C357.865 178.275 354.433 181.706 350.216 181.706H345.779V161.158ZM135.587 181.706H131.15C126.932 181.706 123.501 178.275 123.501 174.057V162.011C123.501 161.027 123.71 160.084 124.062 159.206C125.241 159.825 126.569 160.144 127.935 160.125C127.996 160.135 131.376 160.116 135.587 161.162V181.706ZM151.438 190.593V169.771C153.839 170.49 156.466 170.392 158.891 169.381C163.051 167.645 165.738 163.614 165.738 159.11V85.945C165.738 77.0402 172.983 69.7949 181.888 69.7949H203.764C207.663 69.7949 211.471 71.1533 214.489 73.6205L216.635 75.3753C223.402 80.908 231.942 83.9535 240.683 83.9535C249.424 83.9535 257.964 80.907 264.73 75.3753L266.876 73.6205C269.893 71.1533 273.703 69.7949 277.601 69.7949H299.478C308.383 69.7949 315.628 77.0402 315.628 85.945V159.111C315.628 163.614 318.315 167.646 322.475 169.382C323.864 169.961 325.318 170.242 326.76 170.242C327.835 170.242 328.902 170.085 329.928 169.778V190.593C329.928 202.165 321.928 224.636 307.101 243.493C302.19 249.739 295.877 256.449 288.105 262.314C287.858 262.479 287.623 262.658 287.397 262.848C275.356 271.751 259.873 278.571 240.683 278.571C221.493 278.571 206.009 271.751 193.967 262.847C193.742 262.658 193.507 262.479 193.262 262.315C185.489 256.449 179.176 249.739 174.264 243.493C159.439 224.637 151.438 202.165 151.438 190.593ZM292.607 318.643L240.683 357.452L188.759 318.643C193.908 312.098 196.793 303.698 196.793 296.201V283.425C209.003 289.992 223.573 294.423 240.683 294.423C257.793 294.423 272.364 289.992 284.573 283.425V296.201C284.573 303.698 287.458 312.098 292.607 318.643ZM175.532 309.796C171.299 308.184 166.607 307.92 162.168 309.124C161.974 309.169 161.783 309.221 161.598 309.276L134.217 317.538C138.848 294.766 157.338 276.642 180.942 273.131V296.201C180.942 301.173 178.722 306.314 175.532 309.796ZM197.042 373.42C197.027 373.383 197.013 373.346 196.999 373.31C196.597 372.294 196.201 371.292 195.808 370.301C195.737 370.122 195.666 369.943 195.595 369.765C195.21 368.796 194.829 367.834 194.452 366.888C194.426 366.821 194.4 366.756 194.373 366.688C193.199 363.736 192.067 360.904 190.978 358.19C190.898 357.994 190.819 357.794 190.74 357.598C190.427 356.82 190.119 356.054 189.814 355.297C189.702 355.019 189.591 354.744 189.48 354.469C189.184 353.736 188.89 353.006 188.6 352.293C188.514 352.079 188.429 351.872 188.344 351.66C187.818 350.364 187.304 349.1 186.803 347.869C186.668 347.536 186.53 347.197 186.395 346.868C186.199 346.388 186.007 345.921 185.815 345.45C185.608 344.943 185.401 344.44 185.198 343.945C185.122 343.76 185.042 343.564 184.966 343.381C184.905 343.233 184.849 343.096 184.789 342.949C183.873 340.725 183.003 338.629 182.178 336.658C182.171 336.642 182.164 336.626 182.157 336.61C181.718 335.56 181.288 334.535 180.874 333.558C180.66 333.052 180.448 332.554 180.241 332.066L224.897 365.442L206.238 373.369C206.205 373.383 206.171 373.396 206.138 373.411L198.348 376.721C197.906 375.604 197.474 374.508 197.042 373.42ZM215.953 421.948C214.388 417.886 212.811 413.8 211.23 409.719C208.759 403.335 206.398 397.265 204.139 391.483L207.097 390.226L219.182 404.274L215.953 421.948ZM240.836 486.365C240.609 485.893 240.338 485.448 240.025 485.034C236.444 475.568 231.898 463.59 226.868 450.411L234.267 409.899H247.098L254.498 450.411C249.226 464.218 244.492 476.702 240.836 486.365ZM250.071 394.049H231.295L222.41 383.721L240.683 375.959L258.956 383.721L250.071 394.049ZM270.135 409.719C268.555 413.8 266.978 417.886 265.412 421.948L262.184 404.273L274.268 390.225L277.226 391.482C274.967 397.264 272.607 403.335 270.135 409.719ZM300.493 333.558C300.1 334.484 299.692 335.456 299.277 336.447C299.223 336.576 299.168 336.706 299.114 336.836C298.703 337.819 298.284 338.823 297.851 339.869C297.822 339.938 297.793 340.011 297.764 340.08C297.39 340.982 297.006 341.912 296.616 342.86C296.543 343.038 296.475 343.202 296.402 343.381C296.315 343.593 296.222 343.818 296.134 344.033C295.961 344.456 295.784 344.887 295.607 345.318C295.389 345.85 295.172 346.379 294.949 346.924C294.878 347.097 294.805 347.278 294.734 347.452C294.182 348.804 293.615 350.198 293.036 351.629C292.945 351.853 292.855 352.073 292.764 352.3C292.478 353.007 292.186 353.729 291.893 354.456C291.779 354.74 291.664 355.023 291.549 355.311C291.246 356.06 290.941 356.819 290.632 357.589C290.545 357.803 290.458 358.023 290.371 358.239C289.296 360.915 288.181 363.707 287.023 366.616C286.985 366.712 286.947 366.807 286.909 366.904C286.535 367.844 286.156 368.799 285.774 369.762C285.703 369.942 285.631 370.122 285.559 370.302C285.164 371.298 284.765 372.304 284.361 373.327C284.354 373.346 284.347 373.365 284.339 373.383C283.904 374.484 283.466 375.592 283.02 376.723L275.222 373.41C275.194 373.399 275.167 373.387 275.141 373.375L256.47 365.444L301.127 332.068C300.917 332.554 300.706 333.051 300.493 333.558ZM319.767 309.277C319.766 309.277 319.764 309.276 319.763 309.276C319.757 309.274 319.749 309.273 319.743 309.27C315.145 307.89 310.24 308.118 305.835 309.796C302.644 306.314 300.425 301.173 300.425 296.201V273.119C324.176 276.621 342.611 294.575 347.182 317.548L319.767 309.277ZM381.276 421.502C381.276 435.375 369.989 446.661 356.117 446.661C342.245 446.661 330.959 435.375 330.959 421.502C330.959 407.629 342.245 396.344 356.117 396.344C369.989 396.344 381.276 407.629 381.276 421.502Z" fill="#2A2A2A"/>
</svg>
