<svg width="15" height="15" viewBox="0 0 15 15" fill="none" xmlns="http://www.w3.org/2000/svg">
<g id="facebook-logo 1">
<g id="Group">
<path id="Vector" d="M11.2494 0.003121L9.30422 0C7.11892 0 5.70668 1.44892 5.70668 3.69152V5.39356H3.75092C3.58192 5.39356 3.44507 5.53057 3.44507 5.69957V8.16563C3.44507 8.33463 3.58208 8.47149 3.75092 8.47149H5.70668V14.6941C5.70668 14.8631 5.84353 15 6.01253 15H8.56424C8.73324 15 8.8701 14.863 8.8701 14.6941V8.47149H11.1568C11.3258 8.47149 11.4627 8.33463 11.4627 8.16563L11.4636 5.69957C11.4636 5.61843 11.4313 5.54071 11.3741 5.48329C11.3168 5.42586 11.2388 5.39356 11.1576 5.39356H8.8701V3.95072C8.8701 3.25723 9.03535 2.90518 9.93872 2.90518L11.2491 2.90472C11.4179 2.90472 11.5548 2.7677 11.5548 2.59886V0.308979C11.5548 0.140289 11.4181 0.0034331 11.2494 0.003121Z" fill="#9E9E9C"/>
</g>
</g>
</svg>
