<svg width="15" height="15" viewBox="0 0 15 15" fill="none" xmlns="http://www.w3.org/2000/svg">
<g id="instagram-logo 1">
<g id="Group">
<path id="Vector" d="M10.8604 0H4.13934C1.85691 0 0 1.857 0 4.13943V10.8605C0 13.143 1.85691 14.9999 4.13934 14.9999H10.8604C13.143 14.9999 14.9999 13.1429 14.9999 10.8605V4.13943C15 1.857 13.143 0 10.8604 0ZM13.6691 10.8605C13.6691 12.4092 12.4092 13.669 10.8605 13.669H4.13934C2.59075 13.6691 1.33086 12.4092 1.33086 10.8605V4.13943C1.33086 2.59084 2.59075 1.33086 4.13934 1.33086H10.8604C12.4091 1.33086 13.669 2.59084 13.669 4.13943V10.8605H13.6691Z" fill="#9E9E9C"/>
<path id="Vector_2" d="M7.49986 3.63504C5.36862 3.63504 3.63477 5.36889 3.63477 7.50014C3.63477 9.6313 5.36862 11.3651 7.49986 11.3651C9.63111 11.3651 11.365 9.6313 11.365 7.50014C11.365 5.36889 9.63111 3.63504 7.49986 3.63504ZM7.49986 10.0341C6.10254 10.0341 4.96563 8.89737 4.96563 7.50005C4.96563 6.10264 6.10246 4.96582 7.49986 4.96582C8.89727 4.96582 10.0341 6.10264 10.0341 7.50005C10.0341 8.89737 8.89718 10.0341 7.49986 10.0341Z" fill="#9E9E9C"/>
<path id="Vector_3" d="M11.5272 2.50655C11.2708 2.50655 11.0189 2.61035 10.8378 2.79224C10.6559 2.97324 10.5513 3.22521 10.5513 3.48251C10.5513 3.73902 10.656 3.9909 10.8378 4.17279C11.0188 4.35379 11.2708 4.45848 11.5272 4.45848C11.7845 4.45848 12.0356 4.35379 12.2175 4.17279C12.3994 3.9909 12.5032 3.73893 12.5032 3.48251C12.5032 3.22521 12.3994 2.97324 12.2175 2.79224C12.0365 2.61035 11.7845 2.50655 11.5272 2.50655Z" fill="#9E9E9C"/>
</g>
</g>
</svg>
