<svg width="80" height="80" viewBox="0 0 80 80" fill="none" xmlns="http://www.w3.org/2000/svg">
<g clip-path="url(#clip0)">
<path d="M40.0046 8.72125L39.8226 9.38346C39.6781 10.154 39.4507 11.35 39.44 11.4276C38.6801 16.8952 36.3925 21.7555 32.6386 25.8732C30.4834 28.2384 28.0901 30.6505 25.5242 33.0425C25.3275 33.2258 25.1376 33.401 24.9543 33.5696C24.7322 33.7756 24.165 34.3054 23.6553 34.7897C23.4961 34.9422 23.1389 35.3101 22.9369 35.5147C22.6158 35.8465 22.0967 36.4325 21.7195 36.8713C21.6312 36.9716 21.4212 37.2365 21.2553 37.4519C21.1991 37.5228 20.9168 37.888 20.8098 38.0419C20.6131 38.3241 20.3268 38.7415 20.1757 38.9877C19.8827 39.4572 19.5268 40.0486 19.389 40.3148C19.2767 40.5315 18.8994 41.2633 18.7643 41.5589C17.8011 43.67 17.3141 45.8934 17.3141 48.169C17.3141 58.4861 27.4653 66.8808 39.9457 66.8808H40.0527C52.5331 66.8808 62.687 58.4861 62.687 48.169C62.687 45.8934 62.1974 43.67 61.2341 41.5589C61.1044 41.2753 60.7539 40.5944 60.6094 40.3148C60.4716 40.0486 60.1157 39.4572 59.8228 38.9877C59.6702 38.7415 59.3853 38.3255 59.1886 38.0419C59.087 37.896 58.8221 37.5536 58.7431 37.4519C58.5773 37.2365 58.3686 36.9716 58.2816 36.8713C57.903 36.4338 57.3826 35.8465 57.0602 35.5147C56.8609 35.3101 56.5023 34.9422 56.3418 34.7897C55.8388 34.3107 55.2689 33.7783 55.0441 33.5696C54.8608 33.401 54.6709 33.2258 54.4742 33.0425C51.9083 30.6505 49.5137 28.2371 47.3598 25.8732C43.634 21.7876 41.3531 16.9688 40.5771 11.552C40.5584 11.4316 40.2761 9.91457 40.1691 9.33932L40.0046 8.72125ZM40.0527 67.2701H39.9457C27.2513 67.2701 16.9248 58.7015 16.9248 48.169C16.9248 45.8372 17.4238 43.5603 18.4098 41.3971C18.5449 41.1014 18.8981 40.4164 19.0439 40.1368C19.1857 39.8599 19.5482 39.2566 19.8452 38.7817C20.0017 38.5301 20.2907 38.1061 20.4914 37.8184C20.6038 37.6579 20.8914 37.286 20.9489 37.2124C21.0292 37.1067 21.3061 36.7509 21.4238 36.6158C21.8051 36.1743 22.3309 35.5816 22.6586 35.2432C22.862 35.0371 23.2245 34.6652 23.3891 34.5074C23.8988 34.0218 24.4673 33.4907 24.6907 33.2833C24.8727 33.1161 25.064 32.9408 25.2593 32.7575C27.8172 30.3722 30.2038 27.9682 32.351 25.611C36.0514 21.5534 38.3056 16.7628 39.0547 11.3741C39.0708 11.2617 39.4066 9.49718 39.4427 9.29651L39.8173 7.92526C39.8413 7.84098 39.9189 7.78211 40.0059 7.78211H40.0072C40.0929 7.78211 40.1718 7.84098 40.1945 7.92526L40.549 9.25236C40.5691 9.35269 40.9397 11.3433 40.9611 11.4972C41.7263 16.835 43.9765 21.5842 47.6474 25.611C49.7946 27.9669 52.1812 30.3722 54.7391 32.7575C54.9358 32.9408 55.1257 33.1161 55.3077 33.2833C55.5351 33.4933 56.105 34.0271 56.6094 34.5074C56.7739 34.6652 57.1378 35.0371 57.3398 35.2432C57.6676 35.5816 58.1933 36.1743 58.5759 36.6171C58.6923 36.7495 58.9692 37.1067 59.0508 37.2138C59.1525 37.3449 59.4027 37.6699 59.5097 37.8198C59.709 38.1061 59.9967 38.5288 60.1545 38.7817C60.4502 39.2566 60.8127 39.8599 60.9545 40.1355C61.1017 40.4178 61.4562 41.1054 61.5887 41.3971C62.5746 43.5603 63.0763 45.8386 63.0763 48.169C63.0763 58.7015 52.7471 67.2701 40.0527 67.2701" fill="#27963C"/>
<path d="M60.4961 41.6306C60.3984 41.4139 60.1362 40.9002 59.8914 40.4279C59.771 40.1952 59.4472 39.6507 59.1342 39.1503C59.0004 38.9349 58.7409 38.551 58.5215 38.238C58.4532 38.139 58.2753 37.9048 58.096 37.6734C57.9128 37.4379 57.7308 37.2052 57.6546 37.1196C57.2626 36.6647 56.7663 36.1082 56.4733 35.8058C56.1683 35.4928 55.8967 35.2172 55.779 35.1035C55.2867 34.6366 54.7341 34.1202 54.508 33.9115C54.3288 33.7456 54.1428 33.573 53.9488 33.3924C52.0706 31.6413 49.5675 29.2105 46.9495 26.3409C43.5207 22.579 40.9106 17.7295 40.1401 11.613V11.605C40.1093 11.3481 40.0772 11.0913 40.0531 10.8317C40.0504 10.8063 40.0491 10.7809 40.0464 10.7568C40.033 10.6244 40.021 10.4946 40.0103 10.3595C40.0103 10.3394 40.0023 10.2204 40.0023 10.2204L39.9996 10.2351V10.2204C39.9996 10.2204 39.9889 10.3394 39.9889 10.3595C39.9755 10.4946 39.9648 10.6244 39.9528 10.7568L39.9447 10.8317C39.9193 11.0913 39.8899 11.3481 39.8564 11.605V11.613C39.0872 17.7295 36.4772 22.579 33.047 26.3409C30.4303 29.2105 27.9273 31.6413 26.049 33.3924C25.855 33.573 25.6691 33.7456 25.4898 33.9115C25.2624 34.1202 24.7099 34.6366 24.2202 35.1035C24.1025 35.2172 23.8296 35.4928 23.5246 35.8058C23.2316 36.1082 22.7353 36.6647 22.3419 37.1196C22.2684 37.2052 22.0851 37.4379 21.9018 37.6734C21.7225 37.9048 21.5459 38.139 21.4764 38.238C21.257 38.551 20.9988 38.9349 20.8623 39.1503C20.552 39.6507 20.2269 40.1952 20.1065 40.4279C19.8617 40.9002 19.6008 41.4139 19.5005 41.6306C18.6028 43.6012 18.1105 45.7337 18.1105 47.9624C18.1105 57.8996 27.8858 65.9545 39.9474 65.9545C39.9635 65.9545 39.9809 65.9545 39.9996 65.9532C40.017 65.9545 40.033 65.9545 40.0518 65.9545C52.112 65.9545 61.8874 57.8996 61.8874 47.9624C61.8874 45.7337 61.3951 43.6012 60.4961 41.6306Z" fill="#27963C"/>
<path d="M2.36579 37.774L3.21395 37.8356L3.22867 37.6443L2.43936 36.7934L2.45943 36.5058L3.33569 37.4583L4.40459 36.5366L4.38319 36.8376L3.42265 37.6603L3.40927 37.8489L4.30694 37.9132L4.29088 38.1285L2.34973 37.9894L2.36579 37.774Z" fill="#231F20"/>
<path d="M4.62584 34.7338L4.59909 34.9479L2.85994 34.7298L2.74222 35.6596L3.93821 35.8108C4.07333 35.8255 4.17902 35.8522 4.25259 35.887C4.32751 35.9218 4.37969 35.974 4.40778 36.0435C4.43454 36.1131 4.44256 36.2094 4.42785 36.3298L4.23788 36.3071C4.24591 36.2469 4.24189 36.2001 4.22851 36.1639C4.21514 36.1278 4.18437 36.0997 4.13487 36.077C4.08671 36.0529 4.01313 36.0369 3.91413 36.0248L2.52014 35.8496L2.69004 34.4917L4.62584 34.7338Z" fill="#231F20"/>
<path d="M2.76813 34.0493L2.80692 33.838L4.56881 34.159L3.00626 32.749L3.0678 32.4078L4.9755 32.7557L4.9367 32.9684L3.1882 32.65L4.73871 34.06L4.67717 34.3972L2.76813 34.0493Z" fill="#231F20"/>
<path d="M4.04577 31.9485L4.31066 30.8435L3.47319 30.6429L3.52269 30.4328L5.41434 30.8877L5.36484 31.0964L4.49929 30.889L4.2344 31.994L5.09996 32.2014L5.0518 32.4088L3.15747 31.9539L3.20697 31.7479L4.04577 31.9485Z" fill="#231F20"/>
<path d="M3.64349 30.0019L3.70637 29.7959L5.42143 30.3096L4.02343 28.7364L4.12109 28.4059L5.98197 28.9625L5.91909 29.1685L4.21741 28.6575L5.6007 30.2307L5.50304 30.5585L3.64349 30.0019Z" fill="#231F20"/>
<path d="M6.48632 27.5328L5.76525 27.2746C5.7599 27.3909 5.7104 27.5836 5.61408 27.8538C5.56591 27.9876 5.51775 28.0893 5.47227 28.1615C5.42678 28.2324 5.37461 28.2833 5.31575 28.3114C5.25554 28.3394 5.18732 28.3488 5.10972 28.3394C5.02946 28.3301 4.92912 28.3033 4.80604 28.2592L4.2348 28.0545L4.30972 27.8485L4.91842 28.0679C5.03213 28.1093 5.12043 28.1227 5.18464 28.1107C5.24752 28.0986 5.29835 28.0639 5.33581 28.0077C5.37327 27.9515 5.41207 27.8618 5.45622 27.7388C5.53782 27.514 5.58197 27.3374 5.59 27.2117L4.65755 26.8772L4.72979 26.6739L6.5599 27.3307L6.48632 27.5328Z" fill="#231F20"/>
<path d="M5.78215 26.3335L6.15941 25.4184L6.336 25.492L5.95874 26.407L6.61159 26.6759L7.00357 25.7207L7.18417 25.7943L6.70791 26.9475L4.90857 26.205L5.38616 25.0478L5.56543 25.1214L5.16944 26.082L5.78215 26.3335Z" fill="#231F20"/>
<path d="M6.61685 23.859H6.61418C6.52187 23.8269 6.44963 23.8068 6.39745 23.7975C6.34528 23.7881 6.29845 23.7934 6.25431 23.8108C6.2115 23.8282 6.17003 23.8643 6.13123 23.9192C6.08842 23.974 6.04427 24.0543 5.99477 24.16C5.94795 24.2643 5.91718 24.3526 5.90648 24.4262C5.89578 24.4985 5.90782 24.564 5.93992 24.6242C5.97471 24.6831 6.03357 24.7433 6.12053 24.8021C6.20615 24.861 6.32655 24.9279 6.48173 25.0001C6.63826 25.071 6.76535 25.1219 6.86568 25.15C6.96602 25.1781 7.04896 25.1848 7.11585 25.1714C7.18408 25.1593 7.24294 25.1246 7.2911 25.0697C7.3406 25.0162 7.3901 24.9373 7.43692 24.8329C7.48776 24.7232 7.52254 24.6349 7.5386 24.564C7.55733 24.4944 7.55733 24.4329 7.54127 24.3821C7.52656 24.3312 7.49445 24.2844 7.44763 24.2456C7.39813 24.2055 7.32856 24.1653 7.23625 24.1212L7.32455 23.9326C7.44495 23.9874 7.53726 24.0436 7.60281 24.1011C7.6697 24.1587 7.71385 24.2215 7.73659 24.2951C7.75933 24.3674 7.75933 24.453 7.73793 24.5533C7.71652 24.6523 7.67371 24.7727 7.60816 24.9118C7.54261 25.0523 7.4784 25.1607 7.41418 25.2356C7.34863 25.3118 7.27237 25.3613 7.18408 25.3854C7.09578 25.4082 6.98742 25.4042 6.86301 25.3747C6.73458 25.3439 6.57806 25.2851 6.38943 25.1968C6.19946 25.1098 6.0523 25.0256 5.94929 24.948C5.84494 24.8717 5.7727 24.7914 5.7339 24.7112C5.69511 24.6282 5.68307 24.5386 5.69778 24.4383C5.7125 24.3379 5.75397 24.2189 5.81952 24.0784C5.90648 23.8938 5.98942 23.7653 6.0737 23.6891C6.15397 23.6115 6.2436 23.5754 6.33993 23.5767C6.43357 23.5794 6.55665 23.6102 6.70515 23.669L6.61685 23.859Z" fill="#231F20"/>
<path d="M6.4027 22.8974L7.15589 23.2934L7.24418 23.1249L6.86558 22.0279L6.99803 21.7724L7.41676 22.9964L8.76794 22.5844L8.62613 22.8506L7.41676 23.2185L7.32712 23.3844L8.12445 23.8045L8.02278 23.9944L6.30237 23.0888L6.4027 22.8974Z" fill="#231F20"/>
<path d="M7.19177 21.4291L7.30415 21.2431L8.83994 22.1622L7.87138 20.2946L8.04797 19.9976L9.71353 20.9916L9.60383 21.1775L8.0774 20.2665L9.03393 22.1287L8.85867 22.4244L7.19177 21.4291Z" fill="#231F20"/>
<path d="M9.89094 20.7105L10.0836 20.4256L9.23274 18.5125L10.703 19.5078L10.8247 19.3286L9.21669 18.2423L9.02405 18.5299L9.88827 20.4496L8.40464 19.4463L8.28424 19.6242L9.89094 20.7105ZM8.66685 18.4349C8.73508 18.4791 8.77923 18.5245 8.80197 18.5687C8.82204 18.6128 8.82338 18.6637 8.80598 18.7199C8.78859 18.7747 8.7498 18.8456 8.69227 18.9339C8.60933 19.0556 8.53441 19.1279 8.46752 19.1546C8.39929 19.1801 8.31769 19.1613 8.21869 19.0958L8.30163 18.9727C8.35916 19.0115 8.40464 19.0195 8.44076 18.9968C8.47555 18.9754 8.51969 18.9259 8.56919 18.851C8.60398 18.8001 8.62939 18.7587 8.64143 18.7306C8.65749 18.6998 8.66016 18.6717 8.65214 18.6409C8.64545 18.6128 8.62271 18.5847 8.58257 18.558L8.66685 18.4349Z" fill="#231F20"/>
<path d="M11.9289 17.8521L11.7898 18.0206L10.2914 16.7778L10.5336 16.4862L12.2527 17.0213L11.4085 15.4293L11.6493 15.1403L13.1476 16.3818L13.0112 16.5477L11.6333 15.4079L12.5403 17.1136L12.3998 17.2835L10.567 16.7243L11.9289 17.8521Z" fill="#231F20"/>
<path d="M12.7285 15.2352L13.4014 14.5101L13.5406 14.6398L12.869 15.3663L13.3867 15.8452L14.0891 15.088L14.2309 15.2191L13.3814 16.1355L11.9553 14.8124L12.8074 13.892L12.9479 14.0244L12.2429 14.7857L12.7285 15.2352Z" fill="#231F20"/>
<path d="M14.1368 12.8391L13.5014 13.4612L14.1569 14.1288C14.2278 14.2024 14.288 14.2746 14.3375 14.3495C14.3883 14.4244 14.4218 14.4913 14.4432 14.5542C14.4646 14.6171 14.4713 14.6693 14.4606 14.7107L15.2311 13.9562L14.1368 12.8391ZM14.1529 12.5475L15.3863 13.805L15.4826 13.71L15.8974 14.1341L15.7596 14.2692L15.4773 13.9816L14.49 14.9502L14.7723 15.2392L14.6318 15.3756L14.2157 14.9515L14.296 14.8739C14.304 14.8284 14.2947 14.7709 14.2733 14.704C14.2492 14.6345 14.2131 14.5609 14.1649 14.4833C14.1154 14.4084 14.0566 14.3348 13.9897 14.2652L13.2111 13.4733L14.1529 12.5475Z" fill="#231F20"/>
<path d="M14.5027 12.2368L14.6646 12.095L15.8459 13.4381L15.4941 11.3646L15.7549 11.1358L17.0352 12.5927L16.872 12.7345L15.7001 11.3993L16.0412 13.4662L15.783 13.6937L14.5027 12.2368Z" fill="#231F20"/>
<path d="M16.2715 10.7058L17.3565 12.0824L18.2501 11.38L17.1652 10.0034L17.3351 9.86963L18.4174 11.2462L18.5271 11.1633L18.895 11.6315L18.7411 11.7533L18.495 11.4335L17.3083 12.366L16.1057 10.8369L16.2715 10.7058Z" fill="#231F20"/>
<path d="M17.7086 9.59776L17.8852 9.47335L18.9113 10.9396L18.7909 8.83923L19.0745 8.6399L20.1889 10.2292L20.011 10.3523L18.9916 8.89809L19.1026 10.9891L18.8217 11.1871L17.7086 9.59776Z" fill="#231F20"/>
<path d="M20.0942 9.00073L21.0588 8.40139L20.6039 7.66827L20.7872 7.55456L21.8133 9.20675L21.63 9.32046L21.1604 8.5646L20.1959 9.16394L20.6668 9.92113L20.4862 10.0335L19.4587 8.37999L19.6393 8.26895L20.0942 9.00073Z" fill="#231F20"/>
<path d="M22.5557 7.27631L22.553 7.27497C22.4981 7.19336 22.4513 7.1345 22.4152 7.09704C22.3777 7.05958 22.3363 7.03417 22.2921 7.0248C22.248 7.0141 22.1931 7.01811 22.1276 7.03818C22.062 7.05958 21.9777 7.09704 21.876 7.15323C21.7757 7.20942 21.6995 7.26427 21.6486 7.31644C21.5978 7.36862 21.5684 7.42882 21.5603 7.49705C21.5496 7.56527 21.5643 7.64822 21.5991 7.74721C21.6339 7.84487 21.6928 7.97063 21.7771 8.11912C21.8587 8.26896 21.9322 8.38401 21.9965 8.46695C22.062 8.54722 22.1249 8.60207 22.1878 8.63284C22.2493 8.66093 22.3162 8.66762 22.3884 8.65291C22.4607 8.63819 22.5463 8.60207 22.6466 8.54588C22.751 8.48836 22.8326 8.43618 22.8874 8.38936C22.9423 8.34254 22.9784 8.29438 22.9971 8.24354C23.0145 8.19404 23.0159 8.13785 22.9998 8.07765C22.9837 8.01745 22.9516 7.94253 22.9035 7.85424L23.0854 7.75123C23.1483 7.86628 23.1911 7.96795 23.2112 8.05223C23.2312 8.13785 23.2299 8.21545 23.2031 8.28769C23.1804 8.35993 23.1309 8.42949 23.0547 8.49772C22.9784 8.56595 22.874 8.63685 22.7389 8.71043C22.6025 8.78535 22.4874 8.83485 22.3898 8.85893C22.2921 8.88033 22.2011 8.87632 22.1169 8.84421C22.0312 8.81077 21.947 8.74521 21.8627 8.64622C21.7771 8.54722 21.6861 8.40675 21.5844 8.22481C21.4841 8.04153 21.4132 7.88902 21.3744 7.76461C21.3356 7.64019 21.3249 7.53317 21.3409 7.44487C21.357 7.35658 21.4011 7.27497 21.472 7.20407C21.5443 7.13316 21.6459 7.05958 21.7824 6.98467C21.9603 6.88701 22.1035 6.83082 22.2159 6.81744C22.3282 6.80406 22.4219 6.82815 22.4981 6.88567C22.573 6.9432 22.6533 7.03952 22.7389 7.17597L22.5557 7.27631Z" fill="#231F20"/>
<path d="M22.9449 6.37495L23.3181 7.13883L23.4894 7.05455L23.8278 5.94551L24.0874 5.81709L23.7048 7.05321L25.0386 7.51476L24.7697 7.64586L23.575 7.23248L23.4051 7.31409L23.8024 8.12212L23.6084 8.2171L22.7496 6.46993L22.9449 6.37495Z" fill="#231F20"/>
<path d="M24.4447 5.65367L24.6427 5.56939L25.345 7.21622L25.6594 5.13594L25.9778 5.00082L26.739 6.78545L26.5397 6.86973L25.844 5.23494L25.5216 7.30318L25.2046 7.43964L24.4447 5.65367Z" fill="#231F20"/>
<path d="M27.264 4.14996C27.2814 4.19544 27.284 4.2329 27.272 4.25966C27.26 4.28909 27.2399 4.30916 27.2118 4.32521C27.1824 4.34126 27.1382 4.35865 27.0807 4.38006C26.9964 4.41083 26.9322 4.42421 26.8907 4.42153C26.8479 4.41886 26.8158 4.38541 26.7931 4.3212L26.6553 4.37069C26.6941 4.48173 26.7489 4.54595 26.8198 4.56601C26.8894 4.5834 26.9924 4.56869 27.1302 4.51785C27.2305 4.48173 27.3028 4.44829 27.3496 4.41217C27.3978 4.37738 27.4259 4.33591 27.4339 4.28909C27.4432 4.23959 27.4339 4.17805 27.4044 4.10046L27.264 4.14996ZM26.3944 4.83759L26.5964 4.76401L27.2038 6.44696L27.6372 4.38809L27.9623 4.27036L28.6218 6.09512L28.4185 6.1687L27.8152 4.49779L27.3764 6.54462L27.0526 6.66101L26.3944 4.83759Z" fill="#231F20"/>
<path d="M30.3785 5.55556L30.1672 5.61041L29.6896 3.72277L30.0575 3.63047L31.1317 5.07797L31.3886 3.29468L31.7525 3.20103L32.2301 5.08867L32.0227 5.14084L31.5826 3.40839L31.3083 5.32145L31.0943 5.37496L29.9451 3.84184L30.3785 5.55556Z" fill="#231F20"/>
<path d="M32.5891 3.91481L33.7075 3.70612L33.5483 2.85795L33.7597 2.81915L34.1195 4.73087L33.9055 4.77101L33.7409 3.89475L32.6252 4.10612L32.7898 4.98104L32.5811 5.01984L32.2225 3.10678L32.4299 3.06798L32.5891 3.91481Z" fill="#231F20"/>
<path d="M35.4895 3.046C35.4507 2.94031 35.3905 2.87075 35.3102 2.83864C35.2313 2.80519 35.1122 2.7985 34.9544 2.82125C34.7952 2.84265 34.6815 2.88011 34.6146 2.93228C34.5437 2.9858 34.5049 3.06874 34.4942 3.18112C34.4835 3.29349 34.4942 3.46339 34.5236 3.68948C34.5463 3.86072 34.5718 3.99584 34.5985 4.09483C34.6253 4.19116 34.6614 4.26741 34.7055 4.32092C34.7497 4.37443 34.8085 4.40788 34.8821 4.42126C34.9544 4.43597 35.0507 4.43464 35.1711 4.41858C35.2888 4.40253 35.3811 4.37711 35.448 4.34634C35.5136 4.3129 35.5617 4.26607 35.5898 4.20453C35.6179 4.14166 35.6326 4.06139 35.6326 3.96105C35.6313 3.85938 35.6206 3.72159 35.5965 3.545C35.5657 3.31757 35.5296 3.15168 35.4895 3.046ZM35.8427 4.01992C35.8333 4.14835 35.8052 4.25269 35.7584 4.33296C35.7102 4.41189 35.6407 4.47343 35.5524 4.51624C35.4614 4.55771 35.3437 4.58848 35.1952 4.60855C35.0453 4.62862 34.9223 4.63129 34.8246 4.61658C34.7269 4.60052 34.6453 4.56173 34.5771 4.49885C34.5129 4.43464 34.458 4.34099 34.4139 4.21524C34.3711 4.08948 34.3363 3.92493 34.3082 3.71891C34.2801 3.50888 34.2694 3.33898 34.2774 3.20787C34.2868 3.07677 34.3136 2.97376 34.3604 2.89616C34.4085 2.81857 34.4781 2.75971 34.5677 2.72091C34.656 2.68212 34.7778 2.65268 34.9276 2.63128C35.0788 2.61121 35.2032 2.60854 35.2995 2.62325C35.3985 2.63663 35.4788 2.67409 35.5443 2.73697C35.6099 2.79717 35.6647 2.89081 35.7062 3.01523C35.7477 3.13831 35.7851 3.30553 35.8119 3.5169C35.84 3.72159 35.8507 3.88881 35.8427 4.01992Z" fill="#231F20"/>
<path d="M36.2484 4.44775L36.0745 2.51463L37.2745 2.40627L37.2892 2.59757L36.3113 2.68721L36.4678 4.42769L36.2484 4.44775Z" fill="#231F20"/>
<path d="M38.8091 2.79122C38.7797 2.68152 38.7248 2.60794 38.6486 2.5678C38.571 2.52901 38.4519 2.51295 38.294 2.51964C38.1335 2.52767 38.0185 2.55443 37.9449 2.59991C37.8713 2.64807 37.8258 2.72566 37.8044 2.83804C37.783 2.94774 37.7776 3.11898 37.7883 3.34774C37.7964 3.52032 37.8098 3.65678 37.8285 3.75711C37.8459 3.85745 37.8753 3.93504 37.9141 3.99123C37.9529 4.04741 38.0104 4.08755 38.0813 4.10761C38.1522 4.12902 38.2486 4.13705 38.369 4.13169C38.4894 4.12367 38.583 4.10761 38.6512 4.0822C38.7221 4.05544 38.7743 4.01263 38.8051 3.95377C38.8385 3.89357 38.8613 3.81597 38.8706 3.7143C38.8787 3.61397 38.8787 3.47617 38.8706 3.29824C38.8599 3.06814 38.8385 2.89958 38.8091 2.79122ZM39.0726 3.79056C39.0539 3.92032 39.0165 4.022 38.9616 4.09691C38.9068 4.17049 38.8345 4.22534 38.7395 4.26012C38.6472 4.29357 38.5255 4.31497 38.377 4.323C38.2245 4.32835 38.1027 4.32032 38.0064 4.29624C37.9114 4.27216 37.8338 4.22534 37.7736 4.15711C37.7121 4.09022 37.6666 3.98989 37.6345 3.8628C37.6037 3.73303 37.5823 3.56447 37.5716 3.35845C37.5609 3.14573 37.5663 2.9745 37.5863 2.84607C37.6064 2.7163 37.6425 2.61597 37.6974 2.54239C37.7522 2.47014 37.8258 2.41797 37.9168 2.38586C38.0104 2.35509 38.1335 2.33636 38.2847 2.32834C38.4399 2.32165 38.5616 2.32968 38.6566 2.35242C38.7516 2.37382 38.8292 2.42065 38.8907 2.4862C38.9482 2.55309 38.9964 2.65209 39.0272 2.77918C39.0593 2.90627 39.078 3.07617 39.0874 3.28754C39.0981 3.49356 39.0927 3.66079 39.0726 3.79056Z" fill="#231F20"/>
<path d="M39.4558 2.29873L41.0197 2.30675L41.0103 4.25861L40.7936 4.25727L40.8043 2.50073L39.6671 2.49538L39.6564 4.25192L39.4451 4.24924L39.4558 2.29873Z" fill="#231F20"/>
<path d="M41.6218 3.33336L42.1422 3.36146C42.2639 3.36815 42.3616 3.36413 42.4312 3.35076C42.5007 3.33604 42.5543 3.30259 42.5917 3.24908C42.6278 3.19423 42.6492 3.10995 42.6546 2.99758C42.664 2.84774 42.6466 2.73938 42.6011 2.6765C42.5596 2.61363 42.4753 2.57884 42.3509 2.57215L41.666 2.53336L41.6218 3.33336ZM41.6084 3.52333L41.5696 4.2832L41.3529 4.27116L41.4626 2.32867L42.387 2.37951C42.5623 2.38888 42.6907 2.44239 42.771 2.53737C42.8512 2.63369 42.886 2.77684 42.8767 2.96948C42.8673 3.126 42.8365 3.24908 42.7897 3.33604C42.7402 3.42433 42.6666 3.48587 42.5716 3.51932C42.4767 3.55276 42.3482 3.5648 42.1877 3.55544L41.6084 3.52333Z" fill="#231F20"/>
<path d="M44.4465 3.03158C44.4318 2.9192 44.3916 2.8376 44.3207 2.78676C44.2512 2.73592 44.1374 2.70382 43.9782 2.68642C43.8191 2.66903 43.6986 2.6784 43.6211 2.71452C43.5408 2.7493 43.4819 2.8202 43.4458 2.92723C43.4097 3.03425 43.3789 3.20148 43.3548 3.4289C43.3361 3.60148 43.3281 3.7366 43.3321 3.83961C43.3348 3.94128 43.3522 4.02289 43.3816 4.08443C43.4124 4.1473 43.4619 4.19413 43.5287 4.2249C43.597 4.25567 43.6906 4.27841 43.8083 4.29045C43.9288 4.30115 44.0251 4.29981 44.096 4.2851C44.1696 4.26904 44.2271 4.23292 44.2686 4.18075C44.31 4.12724 44.3448 4.05232 44.3675 3.95332C44.3916 3.857 44.413 3.71921 44.4304 3.54262C44.4545 3.31385 44.4599 3.14395 44.4465 3.03158ZM44.5562 4.06035C44.5187 4.18342 44.4679 4.27975 44.4023 4.3453C44.3368 4.41085 44.2552 4.455 44.1589 4.47373C44.0599 4.49379 43.9368 4.49647 43.791 4.48042C43.6384 4.46436 43.5194 4.43761 43.4271 4.39881C43.3361 4.36135 43.2652 4.30383 43.2157 4.22757C43.1662 4.14998 43.1368 4.04563 43.1247 3.91319C43.1114 3.78208 43.1167 3.61352 43.1368 3.40616C43.1609 3.19479 43.1916 3.02623 43.2304 2.90181C43.2679 2.7774 43.3201 2.68241 43.3856 2.6182C43.4485 2.55666 43.5287 2.51385 43.6264 2.49913C43.7227 2.48174 43.8485 2.4804 43.9983 2.49646C44.1495 2.51251 44.2712 2.53927 44.3622 2.57539C44.4518 2.61285 44.5227 2.66903 44.5722 2.74261C44.6217 2.81887 44.6525 2.92188 44.6632 3.05298C44.6752 3.18275 44.6699 3.35533 44.6472 3.56402C44.6271 3.77138 44.595 3.93593 44.5562 4.06035Z" fill="#231F20"/>
<path d="M45.962 4.26876L46.1894 4.30488C46.3513 4.33298 46.4757 4.31157 46.5573 4.24067C46.6389 4.1711 46.6938 4.04268 46.7245 3.85806C46.754 3.67478 46.7433 3.53699 46.6884 3.44602C46.6336 3.35237 46.5239 3.29484 46.3566 3.26809L46.1319 3.23063L45.962 4.26876ZM45.6958 3.15973C45.582 3.141 45.4884 3.14367 45.4175 3.16909C45.3452 3.19317 45.2904 3.23999 45.2489 3.3109C45.2088 3.3818 45.1794 3.47812 45.1593 3.60254C45.1392 3.72695 45.1366 3.82996 45.1526 3.9089C45.1673 3.9905 45.2075 4.05338 45.2663 4.1002C45.3265 4.14702 45.4135 4.18047 45.5259 4.19786L45.7493 4.23398L45.9178 3.19585L45.6958 3.15973ZM46.16 3.04601L46.4034 3.08481C46.5506 3.11023 46.6697 3.1517 46.758 3.21324C46.8449 3.27478 46.9051 3.3604 46.9359 3.47143C46.9653 3.58247 46.968 3.72294 46.9386 3.89418C46.9132 4.06542 46.8663 4.19786 46.8008 4.29418C46.7366 4.3905 46.655 4.45338 46.5493 4.48281C46.4476 4.51358 46.3232 4.51626 46.1733 4.49218L45.9312 4.45204L45.8857 4.73566L45.673 4.69954L45.7185 4.41726L45.475 4.37713C45.3279 4.35305 45.2101 4.31157 45.1232 4.25003C45.0376 4.1885 44.9774 4.10288 44.9479 3.9905C44.9172 3.87946 44.9172 3.73899 44.9439 3.56776C44.972 3.39785 45.0188 3.26407 45.0817 3.17043C45.1459 3.07277 45.2289 3.01123 45.3319 2.98046C45.4335 2.95103 45.5593 2.94835 45.7065 2.9711L45.9486 3.01123L45.9861 2.78247L46.1974 2.81725L46.16 3.04601Z" fill="#231F20"/>
<path d="M47.4722 3.04465L47.6822 3.09147L47.2889 4.83864L48.7632 3.33495L49.1003 3.40987L48.6722 5.30286L48.4621 5.2547L48.8528 3.52224L47.3812 5.01255L47.0468 4.9363L47.4722 3.04465Z" fill="#231F20"/>
<path d="M50.5762 5.83521L50.3702 5.77634L50.8478 4.08804L49.9461 3.83118L49.617 4.99105C49.5809 5.12216 49.5394 5.22115 49.4913 5.29072C49.4471 5.35895 49.3869 5.40176 49.3147 5.41781C49.2411 5.4352 49.1461 5.42718 49.0297 5.39507L49.0806 5.21045C49.1381 5.22784 49.1849 5.23186 49.2224 5.22383C49.2612 5.2158 49.2933 5.19038 49.324 5.1449C49.3535 5.09941 49.3816 5.02985 49.4083 4.93353L49.7936 3.58368L51.11 3.95961L50.5762 5.83521Z" fill="#231F20"/>
<path d="M51.4477 5.09449L51.1949 5.83697L51.7554 6.02828C51.8531 6.06306 51.9293 6.0751 51.9868 6.06975C52.0444 6.0644 52.0912 6.03898 52.1287 5.99215C52.1648 5.94667 52.2009 5.87443 52.233 5.77811C52.2678 5.67777 52.2852 5.5975 52.2825 5.53998C52.2812 5.48245 52.2557 5.43295 52.2089 5.39282C52.1621 5.35135 52.0845 5.31121 51.9748 5.27509L51.4477 5.09449ZM51.5561 4.11254L51.7594 4.18077L51.5106 4.91121L52.0858 5.10787C52.2196 5.15335 52.3213 5.21088 52.3868 5.27911C52.4551 5.346 52.4912 5.42626 52.4965 5.51991C52.5046 5.61356 52.4858 5.72459 52.4404 5.85436C52.3976 5.98413 52.344 6.08179 52.2825 6.15002C52.221 6.21824 52.1447 6.25704 52.0497 6.26908C51.9574 6.28112 51.8437 6.26239 51.7072 6.21691L50.9273 5.95068L51.5561 4.11254Z" fill="#231F20"/>
<path d="M53.1238 5.57391L54.178 5.99531L54.4977 5.19665L54.6984 5.27558L53.976 7.08295L53.774 7.00268L54.1058 6.17592L53.0502 5.75451L52.7198 6.58127L52.5231 6.501L53.2469 4.69631L53.4422 4.7739L53.1238 5.57391Z" fill="#231F20"/>
<path d="M56.876 6.2807L56.0492 8.03857L55.8539 7.9476L56.6807 6.18973L56.876 6.2807ZM54.9108 6.42385L54.5763 7.13422L55.1181 7.38706C55.2091 7.43121 55.2853 7.45262 55.3429 7.45395C55.4004 7.45529 55.4512 7.43389 55.4927 7.39242C55.5328 7.35094 55.5756 7.28272 55.6198 7.19041C55.6639 7.09409 55.6894 7.01917 55.6934 6.96164C55.6987 6.90278 55.6787 6.85194 55.6372 6.80512C55.5957 6.7583 55.5208 6.71014 55.4164 6.66064L54.9108 6.42385ZM55.1248 5.45929L55.3215 5.55026L54.995 6.2486L55.5435 6.50813C55.6746 6.56833 55.7669 6.63656 55.8258 6.71014C55.8833 6.78505 55.9114 6.868 55.9074 6.96298C55.9034 7.05529 55.8726 7.16365 55.8151 7.28807C55.7576 7.41248 55.6934 7.50479 55.6238 7.56499C55.5569 7.62519 55.4753 7.65596 55.3817 7.6573C55.2867 7.65864 55.1756 7.62921 55.0445 7.56767L54.2994 7.21716L55.1248 5.45929Z" fill="#231F20"/>
<path d="M58.3654 6.68698C58.3413 6.72979 58.3172 6.75654 58.2878 6.76591C58.261 6.77527 58.2302 6.77393 58.2008 6.76323C58.17 6.75253 58.1259 6.73112 58.071 6.70303C57.9921 6.65888 57.9399 6.62009 57.9145 6.58798C57.8878 6.55453 57.8918 6.50771 57.9252 6.44751L57.7955 6.37794C57.7393 6.48096 57.7272 6.5639 57.7593 6.62945C57.7928 6.69367 57.873 6.76189 58.0028 6.83012C58.0938 6.8823 58.17 6.91307 58.2262 6.92511C58.2838 6.93848 58.3346 6.93179 58.3747 6.90504C58.4175 6.88096 58.4563 6.83012 58.4965 6.76056L58.3654 6.68698ZM57.275 6.49166L57.4637 6.59467L56.6075 8.16525L58.4363 7.1231L58.7386 7.28899L57.8102 8.99335L57.6202 8.889L58.4724 7.32912L56.6476 8.35923L56.3453 8.19468L57.275 6.49166Z" fill="#231F20"/>
<path d="M60.4699 8.34499L59.4947 9.80185L60.4405 10.4333L61.4144 8.97777L61.5937 9.09683L60.6184 10.5524L60.7321 10.6286L60.4004 11.1249L60.2372 11.0152L60.4659 10.6835L59.2124 9.84332L60.2933 8.22592L60.4699 8.34499Z" fill="#231F20"/>
<path d="M61.6184 10.174L62.4143 10.7626L62.3006 10.9165L61.506 10.3265L61.0859 10.8937L61.9153 11.5078L61.8003 11.6643L60.7983 10.9218L61.9555 9.35794L62.9628 10.1044L62.8478 10.2583L62.0143 9.64155L61.6184 10.174Z" fill="#231F20"/>
<path d="M62.8804 11.1342L63.7594 11.8526L64.3039 11.1864L64.4711 11.3242L63.2403 12.8306L63.0744 12.6928L63.6363 12.0025L62.7574 11.2827L62.1928 11.973L62.0283 11.8393L63.2617 10.3316L63.4263 10.4667L62.8804 11.1342Z" fill="#231F20"/>
<path d="M63.8602 13.3839L65.0335 12.0849L64.5612 11.6595L64.6937 11.515L65.7907 12.5063L65.6622 12.6481L65.1954 12.2321L64.0221 13.5297L63.8602 13.3839Z" fill="#231F20"/>
<path d="M65.4593 13.5656L65.8272 13.9308C65.9168 14.0191 65.9917 14.0806 66.0546 14.1154C66.1148 14.1515 66.1777 14.1596 66.2406 14.1448C66.3048 14.1274 66.377 14.0793 66.4546 13.999C66.5616 13.8907 66.6192 13.7997 66.6285 13.7234C66.6379 13.6472 66.5991 13.5656 66.5095 13.4786L66.0212 12.9957L65.4593 13.5656ZM65.3228 13.7007L64.7904 14.2438L64.6365 14.0927L66.0038 12.7067L66.6633 13.3582C66.7891 13.4813 66.8493 13.6057 66.8466 13.7301C66.8439 13.8545 66.773 13.9856 66.6406 14.1234C66.5295 14.2345 66.4279 14.3081 66.3315 14.3402C66.2379 14.3749 66.1416 14.3736 66.0466 14.3335C65.9529 14.296 65.8486 14.2198 65.7362 14.1074L65.3228 13.7007Z" fill="#231F20"/>
<path d="M68.5281 16.3169L68.5294 16.3155C68.5976 16.2446 68.6458 16.1871 68.6752 16.143C68.7047 16.0988 68.7207 16.0547 68.722 16.0092C68.7234 15.9624 68.7073 15.9088 68.6739 15.85C68.6418 15.7898 68.5869 15.7175 68.5107 15.6279C68.4358 15.5396 68.3675 15.4767 68.306 15.4379C68.2445 15.3978 68.1789 15.3818 68.1107 15.3871C68.0424 15.3925 67.9622 15.4219 67.8739 15.4754C67.7842 15.5289 67.6745 15.6132 67.5448 15.7256C67.415 15.8366 67.3174 15.9316 67.2491 16.0105C67.1836 16.0908 67.1421 16.1644 67.126 16.2313C67.11 16.2968 67.1153 16.365 67.1475 16.4319C67.1755 16.4988 67.2277 16.5764 67.3026 16.6634C67.3802 16.7543 67.4471 16.8226 67.5046 16.8667C67.5622 16.9109 67.617 16.9376 67.6692 16.9456C67.7214 16.9523 67.7762 16.943 67.8324 16.9135C67.8886 16.8868 67.9555 16.8413 68.0331 16.7744L68.1682 16.9336C68.0692 17.0179 67.9809 17.0794 67.8993 17.1169C67.8217 17.1543 67.7428 17.1677 67.6679 17.157C67.5943 17.1477 67.5153 17.1129 67.4324 17.0527C67.3508 16.9925 67.2598 16.9028 67.1608 16.7864C67.0578 16.6687 66.9883 16.5657 66.9454 16.4747C66.9026 16.3838 66.8879 16.2941 66.904 16.2045C66.92 16.1149 66.9669 16.0172 67.0471 15.9155C67.126 15.8125 67.2451 15.6935 67.403 15.5583C67.5622 15.4219 67.6986 15.3229 67.811 15.26C67.9261 15.1958 68.0264 15.1637 68.1174 15.1624C68.2083 15.161 68.2966 15.1864 68.3809 15.2413C68.4639 15.2975 68.5562 15.3844 68.6578 15.5022C68.7876 15.656 68.8719 15.7858 68.908 15.8928C68.9428 15.9998 68.9401 16.0961 68.8986 16.1818C68.8585 16.2674 68.7796 16.365 68.6645 16.4761L68.5281 16.3169Z" fill="#231F20"/>
<path d="M68.8169 17.0354L69.1928 17.5197C69.253 17.5973 69.3079 17.6521 69.3561 17.6816C69.4042 17.7137 69.4564 17.7217 69.5099 17.7097C69.5634 17.6976 69.6263 17.6628 69.6999 17.6053C69.7627 17.5572 69.8069 17.5103 69.831 17.4702C69.8537 17.4287 69.8617 17.3873 69.8497 17.3418C69.839 17.2963 69.8082 17.2428 69.7601 17.1799L69.3346 16.6327L68.8169 17.0354ZM68.1039 17.5879L68.4691 18.0602C68.5453 18.1552 68.6055 18.2234 68.6577 18.2622C68.7072 18.301 68.7594 18.317 68.8169 18.309C68.8744 18.301 68.9453 18.2649 69.027 18.2006C69.1126 18.1351 69.1674 18.0789 69.1928 18.0321C69.2196 17.9839 69.2249 17.9371 69.2062 17.8889C69.1888 17.8408 69.1487 17.7752 69.0858 17.695L68.6657 17.1531L68.1039 17.5879ZM67.8216 17.5398L69.3574 16.3464L69.9273 17.0796C69.9969 17.1692 70.0397 17.2508 70.0611 17.3297C70.0798 17.406 70.0718 17.4809 70.0397 17.5531C70.0062 17.624 69.9433 17.6963 69.851 17.7685C69.7868 17.818 69.7293 17.8555 69.6798 17.8809C69.629 17.9036 69.5795 17.9144 69.5246 17.9117C69.4724 17.9077 69.4122 17.8863 69.3494 17.8461C69.3828 17.9251 69.3975 17.9946 69.3948 18.0521C69.3908 18.1097 69.3708 18.1632 69.3346 18.21C69.2972 18.2568 69.2423 18.309 69.1701 18.3652C69.0229 18.4789 68.8905 18.5338 68.7701 18.5338C68.6497 18.5311 68.5346 18.4588 68.4249 18.317L67.8216 17.5398Z" fill="#231F20"/>
<path d="M70.3886 19.3922L71.0321 18.9414L70.6361 18.3728C70.5598 18.2618 70.4755 18.2043 70.3899 18.1989C70.3043 18.1936 70.2 18.2337 70.0822 18.3166C69.9846 18.3835 69.9351 18.4691 69.927 18.5695C69.9217 18.6711 69.9632 18.7835 70.0501 18.9079L70.3886 19.3922ZM70.2347 19.5006L69.8856 19.0016L69.0053 19.0926L68.8555 18.8785L69.7839 18.7942C69.7371 18.639 69.7291 18.5079 69.7598 18.4009C69.7919 18.2952 69.8695 18.1962 69.9953 18.1093C70.105 18.0317 70.2066 17.9889 70.3016 17.9768C70.3953 17.9675 70.4849 17.9875 70.5705 18.0424C70.6535 18.0959 70.7391 18.1815 70.8207 18.3006L71.313 19.0043L69.7224 20.1173L69.6006 19.9434L70.2347 19.5006Z" fill="#231F20"/>
<path d="M70.1729 20.8202L71.6512 19.8864L71.3127 19.3486L71.4786 19.2443L72.2679 20.4951L72.106 20.5981L71.7676 20.0697L70.2906 21.0062L70.1729 20.8202Z" fill="#231F20"/>
<path d="M72.4187 20.7509L72.5244 20.9382L70.9659 21.8185L73.0675 21.9015L73.2388 22.2025L71.5505 23.1577L71.4435 22.969L72.9913 22.0954L70.899 22.0045L70.7291 21.7048L72.4187 20.7509Z" fill="#231F20"/>
<path d="M71.9262 23.9008L73.4914 23.1169L73.2065 22.5496L73.3817 22.4627L74.0453 23.7858L73.87 23.8727L73.5878 23.3135L72.0239 24.0961L71.9262 23.9008Z" fill="#231F20"/>
<path d="M73.473 24.5971L73.8784 25.5001L73.7031 25.5777L73.2991 24.676L72.6556 24.9636L73.077 25.9068L72.9004 25.9844L72.3907 24.8472L74.1673 24.0499L74.6784 25.1937L74.5031 25.2727L74.0777 24.3268L73.473 24.5971Z" fill="#231F20"/>
<path d="M73.6024 27.7548L73.5235 27.5542L75.1582 26.916L74.8184 26.0438L73.696 26.4812C73.5703 26.5294 73.4632 26.5575 73.3816 26.5628C73.3 26.5669 73.2305 26.5468 73.1729 26.4986C73.1141 26.4505 73.0632 26.3702 73.0178 26.2565L73.1957 26.1869C73.2171 26.2418 73.2425 26.2819 73.2719 26.3073C73.3 26.3327 73.3428 26.3434 73.395 26.3394C73.4499 26.3354 73.5221 26.318 73.6158 26.2806L74.9228 25.7722L75.4191 27.0458L73.6024 27.7548Z" fill="#231F20"/>
<path d="M75.016 28.9463L75.7652 28.6988L75.5458 28.042C75.5043 27.9135 75.4428 27.8333 75.3612 27.8038C75.2782 27.7744 75.1685 27.7811 75.0307 27.8279C74.921 27.864 74.8475 27.9296 74.8113 28.0259C74.7766 28.1209 74.7846 28.2413 74.8314 28.3845L75.016 28.9463ZM74.8368 29.0052L74.6468 28.4273L73.7786 28.2614L73.6956 28.0125L74.6093 28.1985C74.6093 28.0366 74.6388 27.9095 74.7003 27.8159C74.7618 27.7236 74.8649 27.6527 75.0093 27.6045C75.1364 27.563 75.2475 27.5497 75.3411 27.5671C75.4334 27.5818 75.5137 27.6299 75.5792 27.7048C75.6448 27.7811 75.6996 27.8881 75.7451 28.0259L76.014 28.8406L74.1705 29.4493L74.1023 29.2487L74.8368 29.0052Z" fill="#231F20"/>
<path d="M74.9859 32.6044L74.9378 32.3957L76.6475 31.9957L76.4334 31.082L75.2602 31.3562C75.1264 31.3883 75.0194 31.4003 74.9378 31.395C74.8548 31.387 74.7893 31.3562 74.7371 31.3C74.6876 31.2452 74.6475 31.1582 74.6207 31.0391L74.8053 30.995C74.8201 31.0539 74.8401 31.0967 74.8642 31.1261C74.8896 31.1542 74.9284 31.1716 74.9833 31.1756C75.0354 31.1809 75.1117 31.1702 75.208 31.1475L76.5753 30.8278L76.887 32.1602L74.9859 32.6044Z" fill="#231F20"/>
<path d="M75.2838 33.1373L75.3052 33.2644C75.3172 33.3286 75.3373 33.3728 75.3681 33.3995C75.3988 33.425 75.451 33.445 75.5232 33.4571L76.9453 32.4698L76.9868 32.7039L75.7654 33.5293L77.1915 33.833L77.233 34.0591L75.4925 33.6725C75.2784 33.627 75.158 33.5266 75.1299 33.3715L75.0938 33.1708L75.2838 33.1373Z" fill="#231F20"/>
<path d="M77.3063 34.5771L76.4621 34.6882L76.4875 34.8781L77.4307 35.5537L77.4681 35.84L76.4206 35.0815L75.5551 36.1972L75.5163 35.9002L76.2922 34.8995L76.2681 34.7136L75.3758 34.83L75.3477 34.6159L77.2782 34.3644L77.3063 34.5771Z" fill="#231F20"/>
<path d="M77.4969 36.2141L77.5169 36.4295L75.7336 36.5846L77.6119 37.5305L77.6427 37.8756L75.7096 38.0442L75.6908 37.8301L77.4621 37.6763L75.5945 36.7251L75.5664 36.384L77.4969 36.2141Z" fill="#231F20"/>
<path d="M39.9967 6.71575C21.725 6.71575 6.7951 21.5814 6.7135 39.8544C6.63457 58.2077 21.5002 73.2058 39.8549 73.2861H40.002C58.2737 73.2861 73.2036 58.4191 73.2852 40.1447C73.3628 21.7928 58.4971 6.79735 40.1438 6.71575H39.9967ZM40.002 73.8694H39.8522C21.1765 73.7891 6.04995 58.5275 6.13155 39.8531C6.17035 30.8323 9.71285 22.36 16.1062 15.9974C22.4955 9.63483 30.9826 6.13113 39.9967 6.13113H40.1465C58.8222 6.21407 73.9487 21.473 73.8671 40.1474C73.8283 49.1682 70.2858 57.6405 63.8911 64.0044C57.5031 70.3657 49.0161 73.8694 40.002 73.8694Z" fill="#27963C"/>
<path d="M2.6936 41.5065C2.6936 41.1908 2.94912 40.9339 3.26484 40.9339C3.58057 40.9339 3.83609 41.1908 3.83609 41.5065C3.83609 41.8209 3.58057 42.0778 3.26484 42.0778C2.94912 42.0778 2.6936 41.8209 2.6936 41.5065Z" fill="#231F20"/>
<path d="M76.1357 41.5065C76.1357 41.1908 76.3912 40.9339 76.7083 40.9339C77.024 40.9339 77.2782 41.1908 77.2782 41.5065C77.2782 41.8209 77.024 42.0778 76.7083 42.0778C76.3912 42.0778 76.1357 41.8209 76.1357 41.5065Z" fill="#231F20"/>
<path d="M39.9967 0.584629C18.3577 0.584629 0.677325 18.1888 0.583679 39.829C0.490032 61.563 18.0928 79.3209 39.8268 79.4173H40.002C61.641 79.4173 79.3213 61.8131 79.415 40.1729C79.4618 29.6444 75.4043 19.7286 67.9915 12.2516C60.5801 4.77462 50.6991 0.630114 40.1719 0.584629H39.9967ZM40.002 80.0005H39.8241C17.7691 79.9042 -0.0972611 61.8814 0.000398464 39.8264C0.0458837 29.1735 4.22919 19.168 11.7797 11.6509C19.329 4.13917 29.3491 8.99977e-06 39.9967 8.99977e-06H40.1746C50.8583 0.0481699 60.8838 4.25155 68.4062 11.8396C75.9287 19.4276 80.0464 29.4905 79.9996 40.1755C79.9528 50.8284 75.7695 60.8339 68.2189 68.3496C60.6697 75.8641 50.6496 80.0005 40.002 80.0005" fill="#27963C"/>
<path d="M42.782 47.6951L61.6918 46.459L42.0863 45.7112L51.5191 32.7037L40.909 44.257L39.9967 16.7812L39.0923 44.257L28.4835 32.7037L37.9137 45.7112L18.3069 46.459L37.2167 47.6951L25.5029 60.5594L38.8863 48.863L40.0047 64.0002L41.1151 48.863L54.2175 60.6691L42.782 47.6951Z" fill="white"/>
<path fill-rule="evenodd" clip-rule="evenodd" d="M53.7012 42.2277H44.2871V32.8149H35.7118V42.2277H26.2977V50.8057H35.7118V60.2184H44.2871V50.8057H53.7012V42.2277Z" fill="white"/>
<path d="M44.287 32.2307H35.7117C35.3879 32.2307 35.1257 32.4916 35.1257 32.8153V41.6435H26.2976C25.9752 41.6435 25.713 41.9057 25.713 42.2281V50.8061C25.713 51.1271 25.9752 51.388 26.2976 51.388H35.1257V60.2188C35.1257 60.5413 35.3879 60.8021 35.7117 60.8021H44.287C44.6094 60.8021 44.8729 60.5413 44.8729 60.2188V51.388H53.7011C54.0222 51.388 54.2857 51.1271 54.2857 50.8061V42.2281C54.2857 41.9057 54.0222 41.6435 53.7011 41.6435H44.8729V32.8153C44.8729 32.4916 44.6094 32.2307 44.287 32.2307ZM44.287 32.8153V42.2281H53.7011V50.8061H44.287V60.2188H35.7117V50.8061H26.2976V42.2281H35.7117V32.8153H44.287" fill="#27963C"/>
<path d="M4.66248 45.2455L3.82636 45.386L3.85713 45.5746L4.82436 46.2154L4.87118 46.5004L3.79827 45.7806L2.97685 46.9285L2.92736 46.6328L3.66448 45.6054L3.63238 45.4194L2.74675 45.5693L2.71063 45.3579L4.6277 45.0328L4.66248 45.2455Z" fill="#231F20"/>
<path d="M4.02103 47.2654L4.13341 47.7724C4.16017 47.8941 4.1896 47.9864 4.22304 48.0493C4.25515 48.1122 4.30197 48.1537 4.36485 48.1751C4.42639 48.1951 4.51067 48.1925 4.62171 48.1697C4.7702 48.1363 4.8692 48.0908 4.91736 48.0319C4.96552 47.9731 4.97756 47.8834 4.94947 47.7617L4.80231 47.0928L4.02103 47.2654ZM3.83374 47.3042L3.09394 47.47L3.04578 47.26L4.94412 46.8413L5.14479 47.7443C5.18225 47.9155 5.16619 48.0533 5.09663 48.1563C5.02572 48.2593 4.89729 48.3316 4.71 48.3731C4.55615 48.4078 4.4304 48.4119 4.33274 48.3891C4.23374 48.3664 4.15883 48.3129 4.09863 48.2299C4.0411 48.1456 3.99294 48.0252 3.95949 47.87L3.83374 47.3042Z" fill="#231F20"/>
<path d="M5.84616 50.4217L3.97859 50.9462L3.92107 50.7388L5.78864 50.2157L5.84616 50.4217ZM4.45619 49.0304L3.70033 49.2418L3.86354 49.8157C3.88896 49.9147 3.9224 49.9856 3.95986 50.0298C3.99598 50.0739 4.04548 50.098 4.10301 50.1034C4.16187 50.106 4.2408 50.0953 4.3398 50.0659C4.44013 50.0378 4.51371 50.0057 4.56053 49.9722C4.60736 49.9388 4.63545 49.8906 4.64214 49.8291C4.64883 49.7662 4.63813 49.6793 4.60602 49.5669L4.45619 49.0304ZM5.32576 48.5622L5.38328 48.7709L4.64214 48.9783L4.80669 49.5629C4.84415 49.7007 4.85485 49.8157 4.83612 49.908C4.81873 50.0017 4.77191 50.0766 4.69967 50.1355C4.62742 50.1943 4.52441 50.2411 4.39331 50.2786C4.26087 50.3147 4.14983 50.3281 4.05886 50.3147C3.97056 50.3027 3.89163 50.2626 3.83009 50.1916C3.76856 50.1207 3.71772 50.0164 3.67892 49.8786L3.45685 49.0866L5.32576 48.5622Z" fill="#231F20"/>
<path d="M4.20908 51.6602L4.1355 51.4555L5.96829 50.8053L6.09404 51.1625L4.75624 52.3639L6.55424 52.4548L6.68 52.8094L4.84855 53.4595L4.77497 53.2562L6.45792 52.6582L4.52881 52.5645L4.45657 52.3558L5.87464 51.0702L4.20908 51.6602Z" fill="#231F20"/>
<path d="M6.74493 54.558H6.74761C6.83323 54.5112 6.89611 54.4711 6.93892 54.4376C6.98039 54.4042 7.00714 54.3667 7.0232 54.3226C7.03925 54.2797 7.04059 54.2249 7.02721 54.158C7.01249 54.0911 6.98306 54.0055 6.93892 53.8971C6.89343 53.7915 6.84661 53.7098 6.79978 53.6537C6.7543 53.5975 6.69811 53.5627 6.62988 53.5466C6.56299 53.5306 6.48005 53.5346 6.37838 53.56C6.2767 53.5841 6.14694 53.6309 5.99041 53.6965C5.83255 53.7634 5.71081 53.8236 5.62118 53.8797C5.53422 53.9359 5.47269 53.9935 5.43523 54.051C5.40178 54.1112 5.3884 54.1767 5.39509 54.2503C5.40312 54.3212 5.42988 54.4122 5.47402 54.5179C5.52085 54.6276 5.56366 54.7119 5.60513 54.7721C5.6466 54.8309 5.69075 54.8724 5.73891 54.8965C5.78573 54.9192 5.84058 54.9259 5.90346 54.9165C5.965 54.9085 6.04259 54.8831 6.13623 54.843L6.2165 55.0356C6.09744 55.0878 5.99175 55.1185 5.90613 55.1306C5.82051 55.1413 5.74158 55.1306 5.67336 55.0971C5.60245 55.0664 5.54091 55.0088 5.48071 54.9259C5.42051 54.8456 5.36165 54.7333 5.30011 54.5901C5.23991 54.4483 5.20379 54.3279 5.19175 54.2289C5.17837 54.1313 5.19308 54.0403 5.23456 53.96C5.27469 53.8784 5.34961 53.8022 5.45663 53.7272C5.56366 53.6537 5.71349 53.5774 5.9048 53.4958C6.09744 53.4142 6.25664 53.3607 6.38373 53.3353C6.51082 53.3085 6.61784 53.3085 6.70614 53.3353C6.79176 53.3607 6.86801 53.4129 6.93089 53.4904C6.99377 53.5694 7.0553 53.6804 7.11551 53.8222C7.19444 54.0082 7.23457 54.1567 7.23591 54.269C7.23591 54.3814 7.20514 54.4737 7.13959 54.542C7.07403 54.6115 6.96969 54.6811 6.82654 54.752L6.74493 54.558Z" fill="#231F20"/>
<path d="M7.62541 54.9942L6.86153 55.3648L6.94581 55.536L8.05083 55.8798L8.17659 56.1394L6.94581 55.7501L6.47758 57.0825L6.34647 56.8109L6.76654 55.619L6.68494 55.4504L5.87557 55.8424L5.78192 55.6471L7.53177 54.8002L7.62541 54.9942Z" fill="#231F20"/>
<path d="M8.53087 57.7587C8.61515 57.6824 8.65796 57.6022 8.66064 57.5152C8.66197 57.4296 8.62318 57.3172 8.54692 57.1781C8.46933 57.0376 8.39308 56.9466 8.32084 56.8998C8.24592 56.8543 8.15495 56.8476 8.04659 56.8797C7.93822 56.9092 7.7817 56.9801 7.58237 57.0898C7.4312 57.1727 7.31481 57.2463 7.23186 57.3052C7.15026 57.3654 7.09273 57.4269 7.05929 57.4871C7.02718 57.5473 7.01648 57.6155 7.02986 57.6878C7.04323 57.7614 7.07668 57.8496 7.13554 57.954C7.19441 58.0597 7.25059 58.1373 7.30411 58.1868C7.35896 58.2363 7.41916 58.2644 7.48738 58.2684C7.55561 58.2737 7.63588 58.2577 7.72953 58.2216C7.82451 58.1841 7.94625 58.1226 8.10411 58.0369C8.30478 57.9259 8.44659 57.8349 8.53087 57.7587ZM7.75093 58.4369C7.62652 58.4757 7.51949 58.4878 7.42852 58.4717C7.33755 58.4557 7.25595 58.4142 7.1837 58.3446C7.1128 58.2764 7.04056 58.1774 6.96832 58.0476C6.89608 57.9139 6.84925 57.8001 6.82919 57.7038C6.80778 57.6075 6.81313 57.5165 6.84925 57.4323C6.88404 57.348 6.95093 57.2624 7.05394 57.1781C7.15561 57.0925 7.29608 57.0015 7.47668 56.8998C7.66397 56.7968 7.81916 56.7272 7.94358 56.6871C8.06665 56.6483 8.17368 56.6363 8.26331 56.6537C8.3516 56.6697 8.43187 56.7125 8.50144 56.7821C8.56833 56.8503 8.64057 56.952 8.71415 57.0858C8.78773 57.2195 8.83589 57.3346 8.85596 57.4296C8.8787 57.5232 8.87201 57.6142 8.8399 57.6971C8.80512 57.7814 8.73823 57.8644 8.63656 57.95C8.53756 58.0329 8.39308 58.1266 8.20846 58.2282C8.02786 58.3286 7.87535 58.3981 7.75093 58.4369Z" fill="#231F20"/>
<path d="M7.59418 59.086L9.2477 58.072L9.87647 59.0981L9.71326 59.1984L9.1982 58.3609L7.70923 59.2747L7.59418 59.086Z" fill="#231F20"/>
<path d="M10.3246 60.5937C10.4009 60.5094 10.4357 60.4265 10.429 60.3408C10.4223 60.2539 10.3741 60.1442 10.2858 60.0131C10.1962 59.882 10.1119 59.7964 10.0343 59.7576C9.95675 59.7214 9.86444 59.7228 9.75875 59.7629C9.65307 59.8017 9.50725 59.8887 9.31728 60.0158C9.17547 60.1134 9.06577 60.1964 8.98952 60.2632C8.91326 60.3315 8.86109 60.397 8.83433 60.4599C8.80624 60.5228 8.80222 60.591 8.82229 60.6619C8.84236 60.7328 8.88517 60.8184 8.9534 60.9188C9.02029 61.0164 9.0845 61.0887 9.14336 61.1342C9.20089 61.1796 9.2651 61.1997 9.33199 61.1984C9.40022 61.197 9.47915 61.1729 9.57012 61.1275C9.65842 61.082 9.77748 61.0111 9.92464 60.9094C10.1133 60.7823 10.2457 60.6766 10.3246 60.5937ZM9.61159 61.3415C9.49119 61.391 9.38417 61.4124 9.2932 61.4057C9.20089 61.399 9.11527 61.3643 9.03634 61.3027C8.95875 61.2412 8.87848 61.1489 8.7942 61.0245C8.70992 60.9 8.65239 60.7903 8.6243 60.6967C8.59353 60.6044 8.59219 60.5121 8.61895 60.4251C8.64436 60.3382 8.70456 60.2459 8.79821 60.1522C8.89186 60.0586 9.02296 59.9529 9.19554 59.8365C9.37079 59.7174 9.51795 59.6318 9.63835 59.581C9.75875 59.5301 9.86444 59.5087 9.95407 59.5168C10.045 59.5248 10.128 59.5609 10.2016 59.6224C10.2778 59.6853 10.3581 59.7803 10.4437 59.9061C10.528 60.0318 10.5869 60.1415 10.6176 60.2338C10.6484 60.3275 10.6511 60.4171 10.6256 60.504C10.5989 60.5897 10.54 60.6793 10.4477 60.7729C10.3554 60.8653 10.2216 60.9723 10.0477 61.09C9.87514 61.2064 9.732 61.2907 9.61159 61.3415Z" fill="#231F20"/>
<path d="M11.4037 63.6547L11.5496 63.8313C11.6566 63.9597 11.7649 64.024 11.872 64.024C11.979 64.024 12.1047 63.9651 12.2492 63.8474C12.391 63.7283 12.4726 63.6159 12.4914 63.5116C12.5101 63.4046 12.4659 63.2895 12.3603 63.1611L12.2131 62.9845L11.4037 63.6547ZM11.9322 62.6447C11.8586 62.5564 11.7863 62.4975 11.7154 62.4694C11.6472 62.4413 11.5736 62.44 11.496 62.4668C11.4198 62.4935 11.3328 62.547 11.2365 62.6259C11.1402 62.7076 11.072 62.7838 11.0305 62.8534C10.989 62.9243 10.9783 62.9979 10.9903 63.0714C11.0064 63.1464 11.0506 63.228 11.1228 63.3163L11.2673 63.4902L12.0753 62.8186L11.9322 62.6447ZM12.3576 62.8641L12.5141 63.0527C12.6091 63.1691 12.6706 63.2788 12.6974 63.3818C12.7228 63.4862 12.7108 63.5892 12.6599 63.6922C12.6104 63.7965 12.5195 63.9049 12.3884 64.0146C12.2546 64.1243 12.1315 64.1939 12.0205 64.2246C11.9094 64.2541 11.8064 64.2474 11.7087 64.2019C11.6098 64.1577 11.5134 64.0761 11.4184 63.9611L11.2633 63.7738L11.0412 63.9571L10.9047 63.7912L11.1241 63.6079L10.9663 63.4166C10.8726 63.3029 10.8111 63.1932 10.7857 63.0902C10.7616 62.9872 10.7723 62.8841 10.8231 62.7811C10.874 62.6768 10.9649 62.5684 11.0974 62.4587C11.2312 62.349 11.3529 62.2795 11.4639 62.2487C11.5736 62.2193 11.678 62.2273 11.7743 62.2714C11.8733 62.3156 11.9683 62.3958 12.0646 62.5109L12.2198 62.6995L12.3991 62.551L12.5355 62.7169L12.3576 62.8641Z" fill="#231F20"/>
<path d="M12.8643 64.3941L13.5345 65.1192L13.3941 65.2503L12.7238 64.5252L12.2061 65.0028L12.9084 65.76L12.7653 65.8911L11.9185 64.9761L13.3446 63.6556L14.1954 64.5747L14.0536 64.7058L13.3486 63.9446L12.8643 64.3941Z" fill="#231F20"/>
<path d="M15.2342 65.8731L14.5988 65.2524L13.9459 65.9199C13.875 65.9935 13.8028 66.055 13.7292 66.1059C13.6556 66.1567 13.5887 66.1928 13.5272 66.2156C13.4643 66.237 13.4135 66.2437 13.3707 66.2356L14.1412 66.9902L15.2342 65.8731ZM15.5245 65.8838L14.2951 67.14L14.3927 67.2363L13.978 67.6591L13.8389 67.5239L14.1212 67.2363L13.1339 66.2691L12.8516 66.558L12.7098 66.4203L13.1258 65.9962L13.2048 66.0738C13.2516 66.0805 13.3078 66.0711 13.376 66.047C13.4442 66.0216 13.5151 65.9855 13.5901 65.9346C13.6663 65.8851 13.7385 65.8249 13.8068 65.7554L14.584 64.962L15.5245 65.8838Z" fill="#231F20"/>
<path d="M15.4224 66.9508L16.1622 67.6063L16.0352 67.7495L15.2953 67.0926L14.8285 67.6197L15.6004 68.3047L15.4719 68.4492L14.5395 67.6224L15.8278 66.1669L16.7656 66.9976L16.6372 67.1435L15.8612 66.4545L15.4224 66.9508Z" fill="#231F20"/>
<path d="M16.5616 68.1213L16.967 68.4478C17.0633 68.5267 17.1449 68.5802 17.2091 68.6083C17.2747 68.6377 17.3375 68.6404 17.3977 68.6177C17.4606 68.5949 17.5262 68.5401 17.5957 68.4531C17.6907 68.3341 17.7402 68.2377 17.7402 68.1601C17.7429 68.0852 17.6961 68.0063 17.5984 67.9287L17.066 67.4993L16.5616 68.1213ZM16.4412 68.2685L15.9663 68.8625L15.7991 68.726L17.0191 67.213L17.7402 67.7949C17.8753 67.9046 17.9489 68.0223 17.9583 68.1468C17.9676 68.2698 17.9128 68.4076 17.7924 68.5575C17.6934 68.6792 17.5984 68.7622 17.5074 68.8063C17.4165 68.8478 17.3215 68.8558 17.2252 68.8264C17.1275 68.7983 17.0165 68.7327 16.8921 68.6324L16.4412 68.2685Z" fill="#231F20"/>
<path d="M18.5605 70.1086L18.9137 68.8872L17.8635 69.6015L18.5605 70.1086ZM17.1625 69.8196L18.8736 68.6651L19.1278 68.8497L18.5753 70.8457L18.3906 70.7106L18.5003 70.2972L17.7084 69.7219L17.3538 69.9587L17.1625 69.8196Z" fill="#231F20"/>
<path d="M20.2562 71.9402L20.0756 71.8238L21.0254 70.3509L20.2375 69.8425L19.586 70.8526C19.5111 70.9676 19.4442 71.0519 19.3813 71.1041C19.3157 71.1562 19.2475 71.1803 19.1713 71.175C19.0963 71.1709 19.0067 71.1335 18.905 71.0693L19.0094 70.9087C19.0589 70.9408 19.103 70.9582 19.1405 70.9623C19.1793 70.9649 19.2194 70.9489 19.2609 70.9154C19.3024 70.882 19.3492 70.8231 19.404 70.7402L20.1652 69.5616L21.3117 70.3014L20.2562 71.9402Z" fill="#231F20"/>
<path d="M21.3798 71.4699L20.9905 72.1495L21.5056 72.4451C21.5925 72.496 21.6661 72.5227 21.7236 72.5294C21.7812 72.5348 21.832 72.5174 21.8761 72.4799C21.9203 72.4411 21.9698 72.3782 22.0206 72.2886C22.0728 72.1963 22.1036 72.1214 22.1143 72.0652C22.1236 72.009 22.1089 71.9555 22.0701 71.906C22.0313 71.8578 21.9631 71.803 21.8601 71.7454L21.3798 71.4699ZM21.6728 70.5267L21.8588 70.6337L21.4761 71.3013L22.0019 71.605C22.1277 71.6745 22.2133 71.7495 22.2654 71.8297C22.3176 71.9073 22.339 71.9943 22.3283 72.0866C22.3163 72.1789 22.2775 72.2832 22.2079 72.4036C22.141 72.5214 22.0715 72.6083 21.9979 72.6632C21.9243 72.718 21.8414 72.7421 21.7477 72.7354C21.6541 72.7287 21.5444 72.6913 21.42 72.619L20.7069 72.211L21.6728 70.5267Z" fill="#231F20"/>
<path d="M22.992 72.2485L24.006 72.7609L24.3953 71.9944L24.5853 72.0907L23.7077 73.8258L23.5151 73.7268L23.9164 72.9335L22.9064 72.4211L22.5037 73.2144L22.3137 73.1181L23.1913 71.3843L23.3813 71.4806L22.992 72.2485Z" fill="#231F20"/>
<path d="M25.9001 73.1905C25.9229 73.0794 25.9082 72.9898 25.856 72.9189C25.8052 72.8507 25.7062 72.7824 25.5603 72.7182C25.4159 72.6553 25.2995 72.6273 25.2125 72.6366C25.1269 72.6446 25.0493 72.6955 24.9811 72.7851C24.9155 72.8761 24.8339 73.0259 24.7416 73.2346C24.672 73.3925 24.6225 73.5209 24.5931 73.6186C24.5664 73.7162 24.557 73.7978 24.5677 73.8674C24.5784 73.9356 24.6092 73.9958 24.664 74.0453C24.7189 74.0948 24.8018 74.1443 24.9115 74.1938C25.0225 74.2406 25.1135 74.2687 25.1871 74.2754C25.2593 74.2808 25.3249 74.2674 25.3811 74.2286C25.4373 74.1911 25.4921 74.1296 25.5443 74.044C25.5965 73.9584 25.6593 73.8326 25.7302 73.6707C25.8226 73.4607 25.8787 73.3015 25.9001 73.1905ZM25.6941 74.2018C25.6179 74.3089 25.5389 74.3838 25.4587 74.4266C25.3744 74.4694 25.2861 74.4855 25.1871 74.4748C25.0881 74.4627 24.9704 74.4279 24.8339 74.3677C24.6961 74.3062 24.5891 74.2433 24.5142 74.1804C24.4393 74.1162 24.3898 74.0413 24.367 73.9517C24.3429 73.8634 24.3456 73.755 24.3737 73.6253C24.4031 73.4968 24.4593 73.3363 24.5423 73.1477C24.6279 72.9523 24.7082 72.8025 24.7844 72.6955C24.8593 72.5898 24.9356 72.5149 25.0172 72.4747C25.0975 72.4333 25.1871 72.4186 25.2834 72.4333C25.3797 72.4453 25.4975 72.4828 25.6393 72.5456C25.7771 72.6058 25.8841 72.6674 25.9603 72.7303C26.0353 72.7931 26.0861 72.8681 26.1088 72.9537C26.1329 73.042 26.1302 73.149 26.1008 73.2761C26.0727 73.4045 26.0152 73.5651 25.9296 73.759C25.8466 73.9477 25.7664 74.0962 25.6941 74.2018Z" fill="#231F20"/>
<path d="M25.9602 74.8144L26.6612 73.0044L27.7836 73.4392L27.7141 73.6185L26.7977 73.2639L26.1662 74.8947L25.9602 74.8144Z" fill="#231F20"/>
<path d="M29.0434 74.3558C29.0554 74.2434 29.0314 74.1551 28.9738 74.0909C28.9163 74.0267 28.8133 73.9692 28.6621 73.9184C28.511 73.8675 28.3932 73.8501 28.3063 73.8675C28.2233 73.8836 28.1497 73.9411 28.0909 74.0374C28.032 74.1337 27.9665 74.2903 27.8942 74.507C27.8394 74.6702 27.8019 74.8026 27.7819 74.9016C27.7631 75.002 27.7618 75.0849 27.7792 75.1531C27.7939 75.22 27.8327 75.2762 27.8916 75.3217C27.9518 75.3659 28.0374 75.4073 28.1497 75.4448C28.2648 75.4836 28.3584 75.501 28.432 75.501C28.5069 75.501 28.5698 75.4809 28.6233 75.4381C28.6755 75.3953 28.725 75.3297 28.7678 75.2388C28.8106 75.1491 28.8615 75.0194 28.9176 74.8495C28.9912 74.6327 29.0327 74.4682 29.0434 74.3558ZM28.9297 75.3832C28.8655 75.4956 28.7946 75.5772 28.717 75.6281C28.638 75.6776 28.5497 75.703 28.4508 75.7003C28.3504 75.699 28.2314 75.6736 28.0895 75.6267C27.9464 75.5786 27.8354 75.5264 27.7551 75.4689C27.6748 75.4127 27.6173 75.3418 27.5852 75.2562C27.5544 75.1692 27.5464 75.0608 27.5651 74.9311C27.5798 74.7986 27.6213 74.6354 27.6869 74.4388C27.7551 74.2368 27.8206 74.0802 27.8862 73.9665C27.9518 73.8528 28.0213 73.7712 28.0976 73.723C28.1752 73.6749 28.2621 73.6535 28.3584 73.6588C28.4574 73.6615 28.5778 73.6896 28.7223 73.7364C28.8668 73.7859 28.9792 73.8368 29.0608 73.8929C29.1397 73.9478 29.1972 74.0174 29.2294 74.103C29.2601 74.1859 29.2681 74.2929 29.2508 74.424C29.2347 74.5538 29.1919 74.7184 29.125 74.9204C29.0595 75.1157 28.9939 75.2709 28.9297 75.3832Z" fill="#231F20"/>
<path d="M30.8855 76.2188L31.0085 76.2469C31.0727 76.263 31.1222 76.2616 31.157 76.2456C31.1932 76.2282 31.2333 76.1881 31.2734 76.1279L30.9416 74.4288L31.1717 74.4837L31.4366 75.9339L32.2861 74.7499L32.5109 74.8048L31.458 76.2416C31.3296 76.4168 31.1905 76.4877 31.0366 76.4516L30.8413 76.4048L30.8855 76.2188Z" fill="#231F20"/>
<path d="M32.8281 75.7458L33.9452 75.9519L34.1017 75.105L34.3131 75.1452L33.9586 77.0555L33.7472 77.0167L33.9091 76.1432L32.7934 75.9358L32.6315 76.8107L32.4214 76.7733L32.7773 74.8602L32.9847 74.899L32.8281 75.7458Z" fill="#231F20"/>
<path d="M34.7055 75.2142L34.9196 75.2423L34.6948 77.0162L36.0166 75.38L36.359 75.4229L36.1156 77.3466L35.9028 77.3185L36.1249 75.558L34.8018 77.1807L34.462 77.1366L34.7055 75.2142Z" fill="#231F20"/>
<path d="M36.9213 76.3181L37.5314 76.3609C37.629 76.3676 37.7066 76.3636 37.7615 76.3475C37.8177 76.3328 37.8565 76.2994 37.8846 76.2526C37.9113 76.2044 37.9274 76.1335 37.9341 76.0412C37.9408 75.9609 37.9354 75.8994 37.9207 75.8526C37.906 75.8084 37.8792 75.775 37.8391 75.7536C37.7963 75.7321 37.7361 75.7188 37.6585 75.7134L36.9682 75.6639L36.9213 76.3181ZM36.8558 77.2171L37.4511 77.2586C37.5715 77.2679 37.6638 77.2666 37.7267 77.2546C37.7882 77.2439 37.8364 77.2144 37.8672 77.1676C37.8993 77.1194 37.9193 77.0432 37.9274 76.9388C37.9354 76.8332 37.93 76.7542 37.9113 76.7021C37.8966 76.6512 37.8632 76.6164 37.815 76.5964C37.7682 76.5763 37.6919 76.5643 37.5902 76.5576L36.9066 76.5081L36.8558 77.2171ZM36.631 77.395L36.7702 75.4552L37.6946 75.5208C37.807 75.5288 37.8979 75.5529 37.9688 75.589C38.0397 75.6251 38.0906 75.6813 38.12 75.7549C38.1521 75.8285 38.1642 75.9221 38.1548 76.0372C38.1494 76.1201 38.1387 76.187 38.1227 76.2392C38.1107 76.2914 38.0826 76.3382 38.0451 76.3756C38.0076 76.4131 37.9515 76.4425 37.8792 76.4626C37.9595 76.4907 38.021 76.5255 38.0625 76.5669C38.1026 76.6084 38.128 76.6579 38.1387 76.7168C38.1494 76.7756 38.1521 76.8506 38.1441 76.9429C38.1307 77.1261 38.0839 77.2626 38.0036 77.3509C37.922 77.4392 37.7909 77.4766 37.6117 77.4646L36.631 77.395Z" fill="#231F20"/>
<path d="M38.7804 76.433L39.7676 76.4571L39.7636 76.6471L38.7763 76.6243L38.7589 77.328L39.7904 77.3521L39.7864 77.5447L38.5382 77.5166L38.585 75.5728L39.8372 75.6023L39.8319 75.7949L38.7964 75.7708L38.7804 76.433Z" fill="#231F20"/>
<path d="M40.4016 76.5912L40.922 76.5778C41.0451 76.5751 41.1414 76.5631 41.2096 76.5444C41.2778 76.5243 41.3273 76.4855 41.3608 76.4293C41.3916 76.3731 41.4076 76.2875 41.4049 76.1751C41.4009 76.024 41.3755 75.9183 41.326 75.8594C41.2778 75.7992 41.1922 75.7725 41.0678 75.7751L40.3829 75.7899L40.4016 76.5912ZM40.4043 76.7825L40.4257 77.541L40.2076 77.5464L40.1635 75.6026L41.0892 75.5812C41.2645 75.5758 41.3942 75.6186 41.4839 75.7082C41.5708 75.7952 41.6163 75.937 41.6217 76.1283C41.6243 76.2848 41.6056 76.4093 41.5641 76.5016C41.5227 76.5925 41.4558 76.6608 41.3635 76.7009C41.2685 76.741 41.1441 76.7638 40.9835 76.7678L40.4043 76.7825Z" fill="#231F20"/>
<path d="M43.2104 76.079L43.2091 76.0763C43.1917 75.98 43.1743 75.9078 43.1569 75.8583C43.1382 75.8088 43.1114 75.77 43.0753 75.7405C43.0405 75.7125 42.9884 75.6924 42.9201 75.6844C42.8519 75.675 42.7609 75.675 42.6459 75.6844C42.5308 75.6924 42.4399 75.7098 42.3703 75.7352C42.3021 75.762 42.2499 75.8048 42.2138 75.8623C42.179 75.9212 42.1549 76.0014 42.1455 76.1071C42.1362 76.2101 42.1362 76.3466 42.1496 76.5178C42.1629 76.6877 42.1803 76.8242 42.2057 76.9245C42.2312 77.0262 42.2646 77.1024 42.3088 77.1546C42.3529 77.2081 42.4104 77.2416 42.4813 77.2576C42.5536 77.275 42.6459 77.2777 42.7609 77.2697C42.8813 77.2616 42.975 77.2469 43.0446 77.2268C43.1141 77.2081 43.1676 77.1787 43.2051 77.1412C43.2412 77.1038 43.2666 77.0529 43.2787 76.9927C43.2894 76.9299 43.2907 76.8482 43.284 76.7479L43.4927 76.7332C43.5007 76.863 43.4981 76.9713 43.4793 77.0569C43.4619 77.1439 43.4272 77.2148 43.375 77.2683C43.3228 77.3232 43.2466 77.366 43.1502 77.3941C43.0539 77.4262 42.9282 77.4449 42.7743 77.4569C42.6218 77.4677 42.4947 77.465 42.3984 77.4449C42.2994 77.4248 42.2205 77.382 42.1563 77.3178C42.092 77.2523 42.0425 77.1573 42.0091 77.0315C41.9716 76.9058 41.9489 76.7399 41.9328 76.5339C41.9168 76.3252 41.9168 76.1566 41.9342 76.0282C41.9516 75.8997 41.985 75.7981 42.0372 75.7232C42.0894 75.6496 42.1629 75.5947 42.2579 75.5599C42.3516 75.5265 42.476 75.5024 42.6298 75.4917C42.8332 75.477 42.987 75.4877 43.0927 75.5212C43.1997 75.5559 43.276 75.6161 43.3201 75.7004C43.3643 75.7834 43.3991 75.9051 43.4178 76.0643L43.2104 76.079Z" fill="#231F20"/>
<path d="M43.6782 75.4219L43.8909 75.3939L44.117 77.1691L44.9879 75.2547L45.329 75.2119L45.5752 77.133L45.3611 77.1624L45.1364 75.4005L44.2628 77.3016L43.9216 77.3457L43.6782 75.4219Z" fill="#231F20"/>
<path d="M46.5458 76.9673L46.2368 75.2469L45.6134 75.3593L45.5773 75.1653L47.0328 74.9045L47.0676 75.0958L46.4522 75.2081L46.7599 76.9299L46.5458 76.9673Z" fill="#231F20"/>
<path d="M47.6916 75.6361L48.6561 75.4194L48.6976 75.6053L47.733 75.822L47.8882 76.5097L48.8943 76.2836L48.9384 76.4722L47.7197 76.7451L47.2943 74.8495L48.5157 74.5739L48.5585 74.7638L47.5471 74.9913L47.6916 75.6361Z" fill="#231F20"/>
<path d="M49.8107 76.2436L49.3518 74.5566L48.7391 74.7212L48.6896 74.5339L50.1157 74.1473L50.1665 74.3332L49.5618 74.4991L50.0194 76.1874L49.8107 76.2436Z" fill="#231F20"/>
<path d="M51.9154 74.996L51.1354 73.9927L51.094 75.2622L51.9154 74.996ZM50.8585 75.9565L50.9348 73.8923L51.2318 73.7973L52.5187 75.4187L52.3007 75.4897L52.0318 75.1565L51.102 75.4589L51.0806 75.8843L50.8585 75.9565Z" fill="#231F20"/>
<path d="M53.4257 73.0102L53.6223 72.9259L54.3287 74.5674L54.639 72.4884L54.9574 72.3533L55.7213 74.1339L55.5233 74.2169L54.8223 72.5874L54.5066 74.6543L54.1895 74.7908L53.4257 73.0102Z" fill="#231F20"/>
<path d="M56.3952 73.8188L56.2012 73.9165L55.3209 72.1841L55.658 72.0115L57.0239 73.1847L56.8808 71.3921L57.2166 71.2222L58.0955 72.9546L57.9056 73.0523L57.0948 71.459L57.25 73.3854L57.0534 73.4844L55.5952 72.2429L56.3952 73.8188Z" fill="#231F20"/>
<path d="M58.1746 71.6514L59.0268 71.1538L59.1231 71.3183L58.2682 71.816L58.6241 72.4247L59.5151 71.9043L59.6114 72.0715L58.5358 72.7003L57.5579 71.02L58.6375 70.3912L58.7365 70.5571L57.8401 71.0788L58.1746 71.6514Z" fill="#231F20"/>
<path d="M59.5777 70.8192L60.5288 70.1985L60.0579 69.4774L60.2385 69.3597L61.3008 70.9891L61.1188 71.1069L60.6345 70.3604L59.6834 70.9811L60.169 71.7276L59.9924 71.8427L58.9302 70.2145L59.1068 70.0982L59.5777 70.8192Z" fill="#231F20"/>
<path d="M60.5654 69.1431L60.7393 69.0146L61.7988 70.4555L61.6289 68.3605L61.9085 68.1558L63.0564 69.717L62.8824 69.8441L61.8296 68.414L61.9901 70.5009L61.7145 70.7043L60.5654 69.1431Z" fill="#231F20"/>
<path d="M64.5853 68.2102L65.0308 67.8142C65.1204 67.7353 65.1846 67.6684 65.2194 67.6162C65.2555 67.5627 65.2676 67.5092 65.2555 67.453C65.2435 67.3955 65.2034 67.3286 65.1325 67.2497C65.0616 67.1708 65.004 67.1199 64.9545 67.0958C64.905 67.0718 64.8582 67.0704 64.8114 67.0918C64.7646 67.1119 64.7017 67.156 64.6254 67.2243L64.1131 67.6805L64.5853 68.2102ZM63.986 67.5373L64.4448 67.1293C64.5171 67.0651 64.5679 67.0075 64.5947 66.9554C64.6214 66.9059 64.6281 66.8537 64.6134 66.8015C64.5973 66.7494 64.5572 66.6878 64.4957 66.6196C64.4435 66.5594 64.394 66.5166 64.3512 66.4965C64.3097 66.4751 64.2682 66.4724 64.2228 66.4858C64.1786 66.5019 64.1264 66.534 64.0662 66.5875L63.5512 67.0477L63.986 67.5373ZM64.5559 68.4965L63.2635 67.0437L63.9565 66.4269C64.0408 66.352 64.1211 66.3025 64.1973 66.2784C64.2736 66.253 64.3458 66.2557 64.4221 66.2851C64.4957 66.3132 64.5706 66.3708 64.6468 66.4564C64.7017 66.5193 64.7432 66.5741 64.7713 66.6209C64.798 66.6691 64.8114 66.7186 64.8114 66.7734C64.8127 66.8256 64.7953 66.8858 64.7592 66.9527C64.8368 66.9139 64.9024 66.8952 64.9599 66.8952C65.0187 66.8938 65.0723 66.9099 65.1218 66.9433C65.1713 66.9768 65.2261 67.0276 65.289 67.0972C65.4107 67.235 65.4749 67.3634 65.483 67.4838C65.4883 67.6042 65.4241 67.7246 65.289 67.8437L64.5559 68.4965Z" fill="#231F20"/>
<path d="M65.9421 66.8763L66.1235 67.067L65.9581 67.223L65.7768 67.0323L65.9421 66.8763Z" fill="#231F20"/>
<path d="M65.0778 65.3936L65.2289 65.2398L66.5105 66.4853L65.9995 64.4465L66.2403 64.199L67.6303 65.5502L67.4791 65.704L66.2069 64.4665L66.7072 66.4987L66.4677 66.7448L65.0778 65.3936Z" fill="#231F20"/>
<path d="M67.9085 64.8408L68.1031 65.0181L67.9511 65.1874L67.7565 65.0101L67.9085 64.8408Z" fill="#231F20"/>
<path d="M69.3186 63.2927L69.6838 62.8218C69.7587 62.7255 69.8096 62.6506 69.835 62.5917C69.8591 62.5342 69.8617 62.478 69.8417 62.4259C69.8176 62.371 69.7654 62.3135 69.6838 62.2479C69.6009 62.1824 69.5313 62.1436 69.4791 62.1289C69.427 62.1141 69.3801 62.1222 69.3373 62.1503C69.2945 62.1797 69.2423 62.2345 69.1795 62.3148L68.7567 62.8553L69.3186 63.2927ZM68.6082 62.7389L68.9842 62.2559C69.0444 62.177 69.0831 62.1115 69.1019 62.0566C69.1193 62.0018 69.1153 61.9496 69.0885 61.9014C69.0658 61.8533 69.0149 61.7998 68.9427 61.7422C68.8785 61.6941 68.825 61.662 68.7795 61.6486C68.7326 61.6365 68.6898 61.6406 68.6497 61.662C68.6082 61.6834 68.5641 61.7262 68.5146 61.7891L68.0905 62.3349L68.6082 62.7389ZM69.34 63.5777L67.8069 62.383L68.3781 61.6513C68.4464 61.563 68.5159 61.4988 68.5868 61.4613C68.6564 61.4238 68.7313 61.4118 68.8089 61.4265C68.8865 61.4426 68.9708 61.4854 69.0631 61.5563C69.1273 61.6071 69.1781 61.6526 69.2143 61.6954C69.2477 61.7369 69.2718 61.7837 69.2825 61.8359C69.2918 61.8894 69.2852 61.9509 69.2611 62.0232C69.3306 61.971 69.3935 61.9389 69.4497 61.9282C69.5072 61.9188 69.5621 61.9255 69.6169 61.9483C69.6718 61.9723 69.7373 62.0125 69.8082 62.07C69.9541 62.1824 70.0397 62.2974 70.0691 62.4151C70.0972 62.5329 70.0557 62.66 69.9447 62.8044L69.34 63.5777Z" fill="#231F20"/>
<path d="M69.7378 61.2586L70.3091 60.4506L70.4629 60.5616L69.893 61.3696L70.4696 61.775L71.0636 60.9335L71.2215 61.0446L70.5017 62.0626L68.9151 60.9415L69.6375 59.9181L69.7954 60.0305L69.1974 60.8773L69.7378 61.2586Z" fill="#231F20"/>
<path d="M70.774 59.9992L71.0536 59.5618C71.1218 59.4574 71.166 59.3705 71.1874 59.3022C71.2074 59.2353 71.2048 59.1725 71.1753 59.1136C71.1459 59.0561 71.0844 58.9959 70.9894 58.9357C70.8609 58.8541 70.7593 58.8166 70.683 58.8233C70.6068 58.83 70.5359 58.8862 70.4676 58.9905L70.0997 59.5685L70.774 59.9992ZM70.9332 60.1049L71.5767 60.5103L71.4603 60.6935L69.8201 59.6447L70.3191 58.8648C70.4128 58.7176 70.5225 58.6333 70.6442 58.6092C70.7686 58.5852 70.9104 58.6266 71.0723 58.7296C71.2034 58.8139 71.2971 58.8996 71.3492 58.9838C71.4027 59.0708 71.4188 59.1631 71.4014 59.2634C71.384 59.3624 71.3318 59.4802 71.2462 59.6166L70.9332 60.1049Z" fill="#231F20"/>
<path d="M71.6206 58.391L72.1798 57.4037L71.4319 56.9783L71.5389 56.7924L73.2299 57.7516L73.1229 57.9389L72.3497 57.5001L71.7878 58.486L72.561 58.9262L72.4567 59.1108L70.7684 58.1502L70.8714 57.967L71.6206 58.391Z" fill="#231F20"/>
<path d="M73.4705 55.9794L72.2089 55.8335L73.0865 56.7513L73.4705 55.9794ZM73.4156 57.4055L71.9962 55.9058L72.1353 55.6262L74.1942 55.8429L74.0926 56.0489L73.6658 56.0075L73.2297 56.8837L73.52 57.1968L73.4156 57.4055Z" fill="#231F20"/>
<path d="M73.2679 53.5937L72.9134 54.4084L73.7709 54.7803C73.8646 54.8204 73.9502 54.8659 74.0211 54.9154C74.0947 54.9649 74.1535 55.0157 74.1963 55.0666C74.2418 55.1174 74.2646 55.1629 74.2726 55.2044L74.7007 54.2157L73.2679 53.5937ZM73.1743 53.3194L74.7876 54.0177L74.8412 53.8947L75.3856 54.1288L75.3081 54.3067L74.9388 54.1475L74.389 55.4144L74.7582 55.5749L74.6806 55.7542L74.1361 55.5188L74.1816 55.4171C74.1709 55.3729 74.1415 55.3221 74.0947 55.2673C74.0465 55.2124 73.9863 55.1589 73.9114 55.1067C73.8391 55.0532 73.7575 55.0077 73.6692 54.9689L72.6498 54.5274L73.1743 53.3194Z" fill="#231F20"/>
<path d="M74.3483 51.9868H74.3456C74.252 51.9614 74.1784 51.948 74.1249 51.9427C74.0727 51.9387 74.0259 51.9467 73.9858 51.9668C73.943 51.9882 73.9055 52.027 73.8694 52.0845C73.8333 52.142 73.7945 52.2263 73.7543 52.3347C73.7129 52.443 73.6915 52.5327 73.6861 52.6062C73.6821 52.6798 73.6981 52.744 73.7356 52.8016C73.7731 52.8577 73.8373 52.9126 73.9282 52.9648C74.0192 53.0183 74.145 53.0745 74.3042 53.1333C74.4647 53.1922 74.5971 53.2337 74.6988 53.2524C74.8005 53.2725 74.8834 53.2738 74.949 53.2551C75.0159 53.2363 75.0721 53.1975 75.1162 53.14C75.1604 53.0812 75.2032 52.9996 75.2433 52.8912C75.2861 52.7802 75.3115 52.6878 75.3236 52.6169C75.3329 52.546 75.3303 52.4845 75.3115 52.435C75.2915 52.3842 75.258 52.3427 75.2058 52.3052C75.1563 52.2705 75.0828 52.2357 74.9878 52.1995L75.0614 52.0042C75.1818 52.0497 75.2781 52.0979 75.3503 52.15C75.4212 52.2009 75.4707 52.2624 75.4975 52.3333C75.5269 52.4042 75.5336 52.4885 75.5202 52.5902C75.5082 52.6892 75.4734 52.8123 75.4199 52.9581C75.365 53.1026 75.3089 53.2149 75.25 53.2965C75.1925 53.3755 75.1189 53.4317 75.0346 53.4624C74.949 53.4919 74.8406 53.4972 74.7109 53.4758C74.5838 53.4571 74.4219 53.4089 74.2279 53.338C74.0326 53.2644 73.8787 53.1935 73.769 53.1253C73.658 53.0571 73.5818 52.9822 73.5363 52.9046C73.4908 52.8256 73.4721 52.736 73.4801 52.6343C73.4868 52.5353 73.5189 52.4123 73.5724 52.2678C73.6433 52.0778 73.7155 51.9427 73.7931 51.8597C73.8707 51.7781 73.955 51.734 74.05 51.7286C74.145 51.7233 74.2694 51.7434 74.4219 51.7915L74.3483 51.9868Z" fill="#231F20"/>
<path d="M74.0087 51.0631L74.818 51.3186L74.8756 51.138L74.3097 50.1266L74.3966 49.8524L75.0241 50.9815L76.2789 50.338L76.188 50.6229L75.0615 51.2009L75.0067 51.3788L75.8629 51.6504L75.7973 51.8564L73.9458 51.2678L74.0087 51.0631Z" fill="#231F20"/>
<path d="M75.2524 48.4345C75.14 48.4305 75.0544 48.4613 74.9942 48.5215C74.9327 48.583 74.8832 48.6914 74.8417 48.8452C74.8016 49.0004 74.7922 49.1181 74.8163 49.2024C74.839 49.2867 74.8992 49.3549 74.9996 49.4071C75.0999 49.4593 75.2604 49.5155 75.4825 49.573C75.6497 49.6158 75.7822 49.6426 75.8852 49.6559C75.9842 49.6693 76.0671 49.664 76.134 49.6426C76.1996 49.6225 76.2531 49.5797 76.2946 49.5195C76.336 49.458 76.3708 49.3683 76.4003 49.2519C76.431 49.1355 76.4431 49.0406 76.4391 48.9656C76.4337 48.8934 76.4069 48.8319 76.3615 48.7824C76.316 48.7329 76.2451 48.6874 76.1528 48.6499C76.0605 48.6125 75.9267 48.5723 75.7554 48.5268C75.5334 48.468 75.3661 48.4385 75.2524 48.4345ZM76.2839 48.4787C76.4016 48.5349 76.4886 48.6018 76.5447 48.6767C76.6009 48.7489 76.629 48.8359 76.6344 48.9349C76.6397 49.0339 76.6237 49.1569 76.5849 49.3001C76.5474 49.4472 76.5033 49.5623 76.4511 49.6452C76.4003 49.7309 76.3347 49.7911 76.2504 49.8285C76.1675 49.8646 76.0591 49.8807 75.9267 49.8727C75.7942 49.8646 75.6283 49.8352 75.4277 49.7817C75.223 49.7295 75.0611 49.6733 74.9447 49.6171C74.827 49.5596 74.74 49.4941 74.6865 49.4205C74.633 49.3483 74.6063 49.2626 74.6036 49.165C74.6022 49.0673 74.6196 48.9456 74.6584 48.7971C74.6959 48.6499 74.74 48.5335 74.7895 48.4492C74.839 48.365 74.9046 48.3048 74.9875 48.2673C75.0691 48.2298 75.1762 48.2151 75.3073 48.2232C75.4384 48.2325 75.6056 48.262 75.8103 48.3155C76.0096 48.3676 76.1688 48.4225 76.2839 48.4787Z" fill="#231F20"/>
<path d="M76.849 48.1105L74.9493 47.7079L75.1994 46.5306L75.3881 46.5721L75.1847 47.5326L76.8931 47.8951L76.849 48.1105Z" fill="#231F20"/>
<path d="M75.903 45.1397C75.7907 45.1477 75.7077 45.1839 75.6515 45.2508C75.5967 45.319 75.5579 45.43 75.5325 45.5879C75.5057 45.7444 75.5084 45.8648 75.5391 45.9464C75.5686 46.0267 75.6368 46.0896 75.7412 46.131C75.8455 46.1738 76.0101 46.2153 76.2361 46.2514C76.4074 46.2809 76.5438 46.2942 76.6455 46.2983C76.7458 46.3009 76.8275 46.2889 76.8917 46.2621C76.9559 46.234 77.0054 46.1886 77.0402 46.123C77.0749 46.0588 77.1017 45.9665 77.1204 45.8474C77.1392 45.7283 77.1445 45.632 77.1311 45.5598C77.1204 45.4875 77.0897 45.4287 77.0402 45.3832C76.988 45.3364 76.9144 45.3003 76.8181 45.2722C76.7218 45.2427 76.5866 45.2146 76.4101 45.1852C76.1853 45.1491 76.0154 45.133 75.903 45.1397ZM76.9345 45.0889C77.0549 45.1344 77.1499 45.1906 77.2114 45.2601C77.2716 45.3297 77.3117 45.4126 77.3251 45.509C77.3385 45.6093 77.3331 45.731 77.3091 45.8782C77.285 46.0267 77.2515 46.1457 77.2101 46.234C77.1646 46.3237 77.1044 46.3906 77.0241 46.4347C76.9452 46.4802 76.8382 46.5056 76.7071 46.5096C76.5746 46.5136 76.406 46.5003 76.2014 46.4655C75.9913 46.432 75.8254 46.3919 75.705 46.3451C75.582 46.2996 75.4897 46.2434 75.4294 46.1752C75.3706 46.1083 75.3345 46.024 75.3224 45.9277C75.3131 45.8314 75.3184 45.7069 75.3438 45.5571C75.3679 45.4059 75.4014 45.2855 75.4428 45.1986C75.4843 45.1103 75.5445 45.0434 75.6221 44.9992C75.701 44.9524 75.8054 44.9297 75.9365 44.9243C76.0676 44.9203 76.2375 44.9364 76.4462 44.9698C76.6509 45.0019 76.8127 45.0434 76.9345 45.0889Z" fill="#231F20"/>
</g>
<defs>
<clipPath id="clip0">
<rect width="80" height="80" fill="white"/>
</clipPath>
</defs>
</svg>
