<svg width="15" height="15" viewBox="0 0 15 15" fill="none" xmlns="http://www.w3.org/2000/svg">
<g id="odnoklassniki 2">
<g clip-path="url(#clip0)">
<path id="Vector" d="M2.95061 8.05062C2.56749 8.80374 3.00249 9.16374 3.99499 9.77874C4.83874 10.3 6.00436 10.4906 6.75311 10.5669C6.44624 10.8619 7.85249 9.50937 3.80249 13.405C2.94374 14.2281 4.32624 15.5487 5.18436 14.7431L7.50749 12.5025C8.39686 13.3581 9.24936 14.1781 9.83061 14.7462C10.6894 15.555 12.0712 14.2456 11.2219 13.4081C11.1581 13.3475 8.07374 10.3887 8.26186 10.57C9.01999 10.4937 10.1681 10.2919 11.0019 9.78187L11.0012 9.78124C11.9937 9.16312 12.4287 8.80374 12.0512 8.05062C11.8231 7.62312 11.2081 7.26562 10.3894 7.88374C10.3894 7.88374 9.28374 8.73062 7.50061 8.73062C5.71686 8.73062 4.61186 7.88374 4.61186 7.88374C3.79374 7.26249 3.17624 7.62312 2.95061 8.05062Z" fill="#9E9E9C"/>
<path id="Vector_2" d="M7.49942 7.58875C9.67317 7.58875 11.4482 5.89 11.4482 3.79875C11.4482 1.69875 9.67317 0 7.49942 0C5.32505 0 3.55005 1.69875 3.55005 3.79875C3.55005 5.89 5.32505 7.58875 7.49942 7.58875ZM7.49942 1.92438C8.56755 1.92438 9.4388 2.7625 9.4388 3.79875C9.4388 4.82625 8.56755 5.66438 7.49942 5.66438C6.4313 5.66438 5.56005 4.82625 5.56005 3.79875C5.55942 2.76188 6.43067 1.92438 7.49942 1.92438Z" fill="#9E9E9C"/>
</g>
</g>
<defs>
<clipPath id="clip0">
<rect width="15" height="15" fill="white"/>
</clipPath>
</defs>
</svg>
