<svg width="15" height="15" viewBox="0 0 15 15" fill="none" xmlns="http://www.w3.org/2000/svg">
<g id="vk-social-network-logo 1">
<g clip-path="url(#clip0)">
<g id="Group">
<path id="Vector" d="M14.9205 10.9499C14.9023 10.9108 14.8854 10.8783 14.8697 10.8523C14.6094 10.3836 14.1121 9.80824 13.378 9.12616L13.3625 9.11054L13.3547 9.10288L13.3468 9.09503H13.339C13.0058 8.77742 12.7948 8.56386 12.7064 8.45453C12.5448 8.24625 12.5086 8.03543 12.5969 7.82182C12.6593 7.66043 12.8938 7.31959 13.2998 6.79885C13.5134 6.52287 13.6825 6.30168 13.8074 6.13504C14.7082 4.93746 15.0988 4.1722 14.9789 3.83894L14.9324 3.76106C14.9011 3.71418 14.8204 3.67128 14.6904 3.63217C14.5601 3.59313 14.3936 3.58668 14.1904 3.61269L11.9413 3.62823C11.9048 3.61532 11.8528 3.61652 11.785 3.63217C11.7173 3.64781 11.6834 3.65567 11.6834 3.65567L11.6443 3.67522L11.6132 3.69872C11.5872 3.71426 11.5585 3.74159 11.5273 3.78065C11.4962 3.81957 11.4702 3.86525 11.4494 3.91731C11.2045 4.54731 10.9261 5.13305 10.6136 5.6745C10.421 5.99737 10.244 6.27717 10.0824 6.51409C9.92108 6.75092 9.78571 6.92542 9.67645 7.03727C9.56704 7.14923 9.46829 7.23893 9.3796 7.30668C9.29106 7.37447 9.22346 7.40311 9.17666 7.39263C9.12975 7.38215 9.08557 7.37176 9.04375 7.36136C8.9709 7.31448 8.91231 7.25072 8.86813 7.17002C8.82376 7.08933 8.79389 6.98776 8.77827 6.8654C8.76273 6.74296 8.75354 6.63765 8.75092 6.5491C8.74848 6.46067 8.7496 6.33558 8.75488 6.17418C8.7603 6.01271 8.76273 5.90346 8.76273 5.84618C8.76273 5.6483 8.76659 5.43354 8.77433 5.20184C8.78221 4.97015 8.78858 4.78658 8.79392 4.65134C8.79922 4.51596 8.80169 4.37273 8.80169 4.22174C8.80169 4.07074 8.7925 3.95232 8.77433 3.86638C8.75639 3.78054 8.72884 3.69722 8.69254 3.61644C8.65602 3.53574 8.60257 3.47332 8.53244 3.42901C8.46216 3.38475 8.37479 3.34962 8.27082 3.32353C7.99484 3.26108 7.64342 3.2273 7.21639 3.22204C6.24802 3.21165 5.62579 3.27418 5.34984 3.40956C5.2405 3.46676 5.14156 3.54491 5.0531 3.64377C4.95935 3.75835 4.94628 3.82089 5.01395 3.83117C5.32639 3.87797 5.54758 3.98994 5.67776 4.16695L5.72467 4.26074C5.76116 4.32842 5.7976 4.44823 5.83406 4.62002C5.87047 4.7918 5.89397 4.98183 5.90431 5.19C5.9303 5.57014 5.9303 5.89555 5.90431 6.16625C5.87824 6.43706 5.85362 6.64788 5.83012 6.79888C5.80663 6.94987 5.7715 7.07223 5.72467 7.16592C5.67776 7.25963 5.64655 7.31691 5.6309 7.3377C5.61528 7.35849 5.60226 7.3716 5.59192 7.37674C5.52425 7.40267 5.45386 7.41588 5.38102 7.41588C5.30807 7.41588 5.2196 7.37939 5.11549 7.30647C5.01141 7.23354 4.90338 7.13337 4.79142 7.00579C4.67946 6.87818 4.55319 6.69985 4.41256 6.47079C4.27205 6.24172 4.12625 5.971 3.97525 5.65861L3.85032 5.43206C3.77223 5.28632 3.66554 5.0741 3.53017 4.7956C3.39471 4.517 3.27498 4.2475 3.17089 3.98717C3.12929 3.87784 3.06678 3.7946 2.98349 3.73732L2.9444 3.71382C2.91841 3.69303 2.8767 3.67096 2.81947 3.64743C2.76216 3.62393 2.70237 3.60708 2.63984 3.59672L0.499929 3.61225C0.281258 3.61225 0.132888 3.66179 0.0547635 3.76073L0.0234974 3.80754C0.00787807 3.83361 0 3.87524 0 3.93255C0 3.98983 0.0156194 4.06013 0.0468854 4.14337C0.359273 4.87756 0.698987 5.58563 1.06603 6.26768C1.43307 6.94974 1.75202 7.49915 2.02269 7.91543C2.29342 8.33201 2.56937 8.72517 2.85055 9.09473C3.13172 9.46443 3.31784 9.70134 3.4089 9.80543C3.50008 9.9097 3.57169 9.98766 3.62375 10.0397L3.81903 10.2271C3.94398 10.3521 4.12748 10.5018 4.36959 10.6762C4.61176 10.8507 4.87986 11.0224 5.17403 11.1918C5.46825 11.3609 5.81054 11.4989 6.20108 11.6056C6.59156 11.7124 6.97162 11.7552 7.34132 11.7346H8.23947C8.42163 11.7188 8.55963 11.6616 8.65343 11.5627L8.6845 11.5236C8.7054 11.4925 8.72496 11.4442 8.74301 11.3792C8.76128 11.3142 8.77037 11.2425 8.77037 11.1645C8.76503 10.9406 8.78207 10.7389 8.82103 10.5593C8.85995 10.3797 8.90432 10.2444 8.95394 10.1532C9.00354 10.0621 9.0595 9.98523 9.12179 9.92291C9.18421 9.86046 9.22869 9.82263 9.25479 9.80961C9.28072 9.79651 9.30142 9.78762 9.31704 9.78228C9.442 9.74065 9.58906 9.78097 9.75843 9.90344C9.92768 10.0258 10.0864 10.1769 10.2349 10.3564C10.3833 10.5361 10.5616 10.7378 10.7698 10.9616C10.9782 11.1855 11.1603 11.352 11.3165 11.4615L11.4726 11.5552C11.5769 11.6177 11.7123 11.675 11.8789 11.7271C12.0453 11.7791 12.191 11.7921 12.3162 11.7661L14.3154 11.7349C14.5131 11.7349 14.667 11.7022 14.7762 11.6372C14.8855 11.5721 14.9505 11.5004 14.9714 11.4225C14.9923 11.3444 14.9935 11.2558 14.9754 11.1568C14.9569 11.058 14.9386 10.9889 14.9205 10.9499Z" fill="#9E9E9C"/>
</g>
</g>
</g>
<defs>
<clipPath id="clip0">
<rect width="15" height="15" fill="white"/>
</clipPath>
</defs>
</svg>
