<svg width="12" height="12" viewBox="0 0 12 12" fill="none" xmlns="http://www.w3.org/2000/svg">
<path d="M1.15176 4.19207C1.30356 4.29919 1.76114 4.61732 2.52452 5.14632C3.28792 5.67532 3.87274 6.08263 4.27899 6.36828C4.32363 6.39959 4.41845 6.46766 4.56352 6.57257C4.70861 6.67756 4.82917 6.76239 4.9251 6.8271C5.0211 6.89179 5.13715 6.96436 5.27338 7.04469C5.40955 7.12495 5.53792 7.18532 5.65845 7.22529C5.77901 7.26559 5.89061 7.28555 5.99327 7.28555H6H6.00676C6.10942 7.28555 6.22106 7.26556 6.34162 7.22529C6.4621 7.18532 6.59059 7.12488 6.72665 7.04469C6.86278 6.96426 6.97883 6.89177 7.07483 6.8271C7.17083 6.76239 7.29129 6.67756 7.43643 6.57257C7.58148 6.46757 7.67642 6.39959 7.72105 6.36828C8.1317 6.08263 9.17644 5.35715 10.8549 4.19193C11.1808 3.96435 11.4531 3.68974 11.6718 3.36829C11.8907 3.04699 12 2.70992 12 2.35728C12 2.0626 11.8939 1.81034 11.6818 1.60054C11.4698 1.39069 11.2186 1.28583 10.9285 1.28583H1.07138C0.727657 1.28583 0.463135 1.40188 0.277867 1.63399C0.0926224 1.86614 0 2.15632 0 2.50451C0 2.78575 0.122808 3.09052 0.368308 3.41863C0.613784 3.74676 0.875022 4.0046 1.15176 4.19207Z" fill="#587D5F"/>
<path d="M11.3303 4.90846C9.86612 5.89944 8.75438 6.6696 7.99555 7.21877C7.74109 7.40619 7.53467 7.5525 7.37614 7.65735C7.21761 7.76226 7.00678 7.8694 6.74333 7.97872C6.47999 8.08821 6.23456 8.14279 6.00684 8.14279H6.00001H5.99328C5.76561 8.14279 5.52004 8.08821 5.25669 7.97872C4.99334 7.8694 4.78237 7.76226 4.62388 7.65735C4.46545 7.5525 4.25895 7.40619 4.00452 7.21877C3.40181 6.77684 2.29245 6.00663 0.676407 4.90846C0.421878 4.73893 0.196432 4.54461 0 4.3259V9.64271C0 9.93754 0.104865 10.1896 0.314714 10.3995C0.524515 10.6094 0.776792 10.7143 1.07145 10.7143H10.9286C11.2232 10.7143 11.4755 10.6094 11.6853 10.3995C11.8952 10.1896 12 9.93756 12 9.64271V4.3259C11.808 4.54008 11.5849 4.73441 11.3303 4.90846Z" fill="#587D5F"/>
</svg>