<svg width="12" height="12" viewBox="0 0 12 12" fill="none" xmlns="http://www.w3.org/2000/svg">
<path d="M11.9741 9.29781C11.9402 9.19554 11.7242 9.04488 11.3265 8.84619C11.2187 8.78357 11.0651 8.69846 10.8664 8.59049C10.6676 8.48252 10.4871 8.38303 10.3253 8.2921C10.1631 8.20121 10.0112 8.11314 9.86925 8.02804C9.84656 8.01099 9.77555 7.96135 9.65623 7.87879C9.5368 7.79646 9.43608 7.73535 9.35355 7.6955C9.27119 7.65589 9.19017 7.63595 9.11062 7.63595C8.99701 7.63595 8.8551 7.71696 8.68471 7.87879C8.51432 8.04082 8.35802 8.21682 8.21605 8.40733C8.07405 8.59774 7.92345 8.77375 7.76452 8.93569C7.60536 9.09769 7.47458 9.17861 7.37243 9.17861C7.32115 9.17861 7.25721 9.16432 7.18058 9.13611C7.10398 9.10772 7.04571 9.08339 7.00571 9.06378C6.96607 9.04375 6.89804 9.00411 6.80138 8.94425C6.70455 8.88458 6.6507 8.8519 6.63935 8.84619C5.86099 8.41428 5.19344 7.91995 4.63657 7.36332C4.07988 6.80636 3.58549 6.13887 3.1537 5.36041C3.14802 5.34904 3.11528 5.29504 3.05566 5.1985C2.99596 5.10188 2.95617 5.03379 2.93629 4.99391C2.91641 4.95417 2.89226 4.89591 2.8639 4.81922C2.83554 4.74253 2.82131 4.67865 2.82131 4.62746C2.82131 4.52525 2.90229 4.3945 3.06423 4.23539C3.22614 4.07638 3.40232 3.92575 3.59259 3.78381C3.78301 3.64187 3.95901 3.48557 4.12098 3.31518C4.2829 3.1447 4.36385 3.00273 4.36385 2.88912C4.36385 2.80963 4.34397 2.72858 4.30424 2.64622C4.26448 2.56368 4.2034 2.46297 4.12098 2.34359C4.03854 2.22428 3.98883 2.15332 3.97176 2.13049C3.88662 1.98855 3.79865 1.83658 3.70764 1.67464C3.61662 1.51272 3.51728 1.33225 3.40928 1.13341C3.30137 0.934661 3.2162 0.781198 3.15364 0.673257C2.95489 0.275613 2.80435 0.0596122 2.70205 0.0256419C2.66226 0.00859706 2.60256 0 2.5231 0C2.3696 0 2.16936 0.0283583 1.92223 0.0852542C1.675 0.14206 1.48046 0.201643 1.3384 0.26424C1.05431 0.383494 0.753206 0.730063 0.434995 1.30383C0.145233 1.8378 0.000366211 2.36631 0.000366211 2.88897C0.000366211 3.04225 0.0103066 3.19139 0.0301873 3.3364C0.0500679 3.48127 0.0855905 3.64465 0.136785 3.8265C0.18789 4.00829 0.229114 4.14333 0.260278 4.23127C0.291472 4.31928 0.349711 4.47692 0.434965 4.70426C0.5201 4.93155 0.571294 5.07068 0.588339 5.12182C0.787176 5.67866 1.02297 6.17576 1.29566 6.61329C1.74432 7.34051 2.35659 8.09207 3.13211 8.86766C3.90767 9.64318 4.65908 10.2554 5.38636 10.7043C5.82383 10.9769 6.32111 11.2127 6.87786 11.4117C6.92903 11.4286 7.06816 11.4797 7.29536 11.5651C7.52264 11.6503 7.68034 11.7086 7.76834 11.7398C7.85637 11.7711 7.99145 11.8124 8.17309 11.8636C8.35512 11.9147 8.51835 11.9503 8.66321 11.9703C8.80817 11.9899 8.95734 12 9.11065 12C9.63328 12 10.1618 11.8551 10.6959 11.5653C11.2696 11.2473 11.6161 10.9461 11.7354 10.6618C11.7981 10.5199 11.8576 10.3253 11.9144 10.0781C11.9714 9.83095 11.9996 9.63074 11.9996 9.47727C11.9998 9.39748 11.9913 9.33793 11.9741 9.29781Z" fill="#587D5F"/>
</svg>
