<svg width="120" height="15" viewBox="0 0 120 15" fill="none" xmlns="http://www.w3.org/2000/svg">
<g clip-path="url(#clip0)">
<path d="M49.9205 10.9499C49.9023 10.9108 49.8854 10.8783 49.8697 10.8523C49.6094 10.3836 49.1121 9.80824 48.378 9.12616L48.3625 9.11054L48.3547 9.10288L48.3468 9.09503H48.339C48.0058 8.77742 47.7948 8.56386 47.7064 8.45453C47.5448 8.24625 47.5086 8.03543 47.5969 7.82182C47.6593 7.66043 47.8938 7.31959 48.2998 6.79885C48.5134 6.52287 48.6825 6.30168 48.8074 6.13504C49.7082 4.93746 50.0988 4.1722 49.9789 3.83894L49.9324 3.76106C49.9011 3.71418 49.8204 3.67128 49.6904 3.63217C49.5601 3.59313 49.3936 3.58668 49.1904 3.61269L46.9413 3.62823C46.9048 3.61532 46.8528 3.61652 46.785 3.63217C46.7173 3.64781 46.6834 3.65567 46.6834 3.65567L46.6443 3.67522L46.6132 3.69872C46.5872 3.71426 46.5585 3.74159 46.5273 3.78065C46.4962 3.81957 46.4702 3.86525 46.4494 3.91731C46.2045 4.54731 45.9261 5.13305 45.6136 5.6745C45.421 5.99737 45.244 6.27717 45.0824 6.51409C44.9211 6.75092 44.7857 6.92542 44.6765 7.03727C44.567 7.14923 44.4683 7.23893 44.3796 7.30668C44.2911 7.37447 44.2235 7.40311 44.1767 7.39263C44.1297 7.38215 44.0856 7.37176 44.0437 7.36136C43.9709 7.31448 43.9123 7.25072 43.8681 7.17002C43.8238 7.08933 43.7939 6.98776 43.7783 6.8654C43.7627 6.74296 43.7535 6.63765 43.7509 6.5491C43.7485 6.46067 43.7496 6.33558 43.7549 6.17418C43.7603 6.01271 43.7627 5.90346 43.7627 5.84618C43.7627 5.6483 43.7666 5.43354 43.7743 5.20184C43.7822 4.97015 43.7886 4.78658 43.7939 4.65134C43.7992 4.51596 43.8017 4.37273 43.8017 4.22174C43.8017 4.07074 43.7925 3.95232 43.7743 3.86638C43.7564 3.78054 43.7288 3.69722 43.6925 3.61644C43.656 3.53574 43.6026 3.47332 43.5324 3.42901C43.4622 3.38475 43.3748 3.34962 43.2708 3.32353C42.9948 3.26108 42.6434 3.2273 42.2164 3.22204C41.248 3.21165 40.6258 3.27418 40.3498 3.40956C40.2405 3.46676 40.1416 3.54491 40.0531 3.64377C39.9594 3.75835 39.9463 3.82089 40.014 3.83117C40.3264 3.87797 40.5476 3.98994 40.6778 4.16695L40.7247 4.26074C40.7612 4.32842 40.7976 4.44823 40.8341 4.62002C40.8705 4.7918 40.894 4.98183 40.9043 5.19C40.9303 5.57014 40.9303 5.89555 40.9043 6.16625C40.8782 6.43706 40.8536 6.64788 40.8301 6.79888C40.8066 6.94987 40.7715 7.07223 40.7247 7.16592C40.6778 7.25963 40.6465 7.31691 40.6309 7.3377C40.6153 7.35849 40.6023 7.3716 40.5919 7.37674C40.5242 7.40267 40.4539 7.41588 40.381 7.41588C40.3081 7.41588 40.2196 7.37939 40.1155 7.30647C40.0114 7.23354 39.9034 7.13337 39.7914 7.00579C39.6795 6.87818 39.5532 6.69985 39.4126 6.47079C39.272 6.24172 39.1262 5.971 38.9753 5.65861L38.8503 5.43206C38.7722 5.28632 38.6655 5.0741 38.5302 4.7956C38.3947 4.517 38.275 4.2475 38.1709 3.98717C38.1293 3.87784 38.0668 3.7946 37.9835 3.73732L37.9444 3.71382C37.9184 3.69303 37.8767 3.67096 37.8195 3.64743C37.7622 3.62393 37.7024 3.60708 37.6398 3.59672L35.4999 3.61225C35.2813 3.61225 35.1329 3.66179 35.0548 3.76073L35.0235 3.80754C35.0079 3.83361 35 3.87524 35 3.93255C35 3.98983 35.0156 4.06013 35.0469 4.14337C35.3593 4.87756 35.699 5.58563 36.066 6.26768C36.4331 6.94974 36.752 7.49915 37.0227 7.91543C37.2934 8.33201 37.5694 8.72517 37.8505 9.09473C38.1317 9.46443 38.3178 9.70134 38.4089 9.80543C38.5001 9.9097 38.5717 9.98766 38.6237 10.0397L38.819 10.2271C38.944 10.3521 39.1275 10.5018 39.3696 10.6762C39.6118 10.8507 39.8799 11.0224 40.174 11.1918C40.4683 11.3609 40.8105 11.4989 41.2011 11.6056C41.5916 11.7124 41.9716 11.7552 42.3413 11.7346H43.2395C43.4216 11.7188 43.5596 11.6616 43.6534 11.5627L43.6845 11.5236C43.7054 11.4925 43.725 11.4442 43.743 11.3792C43.7613 11.3142 43.7704 11.2425 43.7704 11.1645C43.765 10.9406 43.7821 10.7389 43.821 10.5593C43.86 10.3797 43.9043 10.2444 43.9539 10.1532C44.0035 10.0621 44.0595 9.98523 44.1218 9.92291C44.1842 9.86046 44.2287 9.82263 44.2548 9.80961C44.2807 9.79651 44.3014 9.78762 44.317 9.78228C44.442 9.74065 44.5891 9.78097 44.7584 9.90344C44.9277 10.0258 45.0864 10.1769 45.2349 10.3564C45.3833 10.5361 45.5616 10.7378 45.7698 10.9616C45.9782 11.1855 46.1603 11.352 46.3165 11.4615L46.4726 11.5552C46.5769 11.6177 46.7123 11.675 46.8789 11.7271C47.0453 11.7791 47.191 11.7921 47.3162 11.7661L49.3154 11.7349C49.5131 11.7349 49.667 11.7022 49.7762 11.6372C49.8855 11.5721 49.9505 11.5004 49.9714 11.4225C49.9923 11.3444 49.9935 11.2558 49.9754 11.1568C49.9569 11.058 49.9386 10.9889 49.9205 10.9499Z" fill="#587D5F"/>
</g>
<path d="M81.2494 0.003121L79.3042 0C77.1189 0 75.7067 1.44892 75.7067 3.69152V5.39356H73.7509C73.5819 5.39356 73.4451 5.53057 73.4451 5.69957V8.16563C73.4451 8.33463 73.5821 8.47149 73.7509 8.47149H75.7067V14.6941C75.7067 14.8631 75.8435 15 76.0125 15H78.5642C78.7332 15 78.8701 14.863 78.8701 14.6941V8.47149H81.1568C81.3258 8.47149 81.4627 8.33463 81.4627 8.16563L81.4636 5.69957C81.4636 5.61843 81.4313 5.54071 81.3741 5.48329C81.3168 5.42586 81.2388 5.39356 81.1576 5.39356H78.8701V3.95072C78.8701 3.25723 79.0354 2.90518 79.9387 2.90518L81.2491 2.90472C81.4179 2.90472 81.5548 2.7677 81.5548 2.59886V0.308979C81.5548 0.140289 81.4181 0.0034331 81.2494 0.003121Z" fill="#587D5F"/>
<g clip-path="url(#clip1)">
<path d="M2.95064 8.05062C2.56752 8.80374 3.00252 9.16374 3.99502 9.77874C4.83877 10.3 6.00439 10.4906 6.75314 10.5669C6.44627 10.8619 7.85252 9.50937 3.80252 13.405C2.94377 14.2281 4.32627 15.5487 5.18439 14.7431L7.50752 12.5025C8.39689 13.3581 9.24939 14.1781 9.83064 14.7462C10.6894 15.555 12.0713 14.2456 11.2219 13.4081C11.1581 13.3475 8.07377 10.3887 8.26189 10.57C9.02002 10.4937 10.1681 10.2919 11.0019 9.78187L11.0013 9.78124C11.9938 9.16312 12.4288 8.80374 12.0513 8.05062C11.8231 7.62312 11.2081 7.26562 10.3894 7.88374C10.3894 7.88374 9.28377 8.73062 7.50064 8.73062C5.71689 8.73062 4.61189 7.88374 4.61189 7.88374C3.79377 7.26249 3.17627 7.62312 2.95064 8.05062Z" fill="#587D5F"/>
<path d="M7.49933 7.58875C9.67308 7.58875 11.4481 5.89 11.4481 3.79875C11.4481 1.69875 9.67308 0 7.49933 0C5.32496 0 3.54996 1.69875 3.54996 3.79875C3.54996 5.89 5.32496 7.58875 7.49933 7.58875ZM7.49933 1.92438C8.56746 1.92438 9.43871 2.7625 9.43871 3.79875C9.43871 4.82625 8.56746 5.66438 7.49933 5.66438C6.43121 5.66438 5.55996 4.82625 5.55996 3.79875C5.55933 2.76188 6.43058 1.92438 7.49933 1.92438Z" fill="#587D5F"/>
</g>
<path d="M115.86 0H109.139C106.857 0 105 1.857 105 4.13943V10.8605C105 13.143 106.857 14.9999 109.139 14.9999H115.86C118.143 14.9999 120 13.1429 120 10.8605V4.13943C120 1.857 118.143 0 115.86 0ZM118.669 10.8605C118.669 12.4092 117.409 13.669 115.86 13.669H109.139C107.591 13.6691 106.331 12.4092 106.331 10.8605V4.13943C106.331 2.59084 107.591 1.33086 109.139 1.33086H115.86C117.409 1.33086 118.669 2.59084 118.669 4.13943V10.8605H118.669Z" fill="#587D5F"/>
<path d="M112.5 3.63504C110.369 3.63504 108.635 5.36889 108.635 7.50014C108.635 9.6313 110.369 11.3651 112.5 11.3651C114.631 11.3651 116.365 9.6313 116.365 7.50014C116.365 5.36889 114.631 3.63504 112.5 3.63504ZM112.5 10.0341C111.103 10.0341 109.966 8.89737 109.966 7.50005C109.966 6.10264 111.103 4.96582 112.5 4.96582C113.897 4.96582 115.034 6.10264 115.034 7.50005C115.034 8.89737 113.897 10.0341 112.5 10.0341Z" fill="#587D5F"/>
<path d="M116.527 2.50655C116.271 2.50655 116.019 2.61035 115.838 2.79224C115.656 2.97324 115.551 3.22521 115.551 3.48251C115.551 3.73902 115.656 3.9909 115.838 4.17279C116.019 4.35379 116.271 4.45848 116.527 4.45848C116.784 4.45848 117.036 4.35379 117.217 4.17279C117.399 3.9909 117.503 3.73893 117.503 3.48251C117.503 3.22521 117.399 2.97324 117.217 2.79224C117.036 2.61035 116.784 2.50655 116.527 2.50655Z" fill="#587D5F"/>
<defs>
<clipPath id="clip0">
<rect x="35" width="15" height="15" fill="white"/>
</clipPath>
<clipPath id="clip1">
<rect width="15" height="15" fill="white"/>
</clipPath>
</defs>
</svg>
