<svg width="17" height="15" viewBox="0 0 17 15" fill="none" xmlns="http://www.w3.org/2000/svg">
<path d="M15.8768 6.37432L13.4295 4.0786V1.42665C13.4295 0.947137 13.0153 0.558533 12.5033 0.558533C11.9926 0.558533 11.5784 0.947137 11.5784 1.42665V2.34215L9.75619 0.632743C8.85527 -0.211918 7.28889 -0.210419 6.39003 0.634272L0.270919 6.37432C-0.0903062 6.71385 -0.0903062 7.26323 0.270919 7.60223C0.632307 7.94167 1.21909 7.94167 1.58035 7.60223L7.69888 1.86203C7.8982 1.67603 8.24952 1.67603 8.4478 1.86148L14.5674 7.60223C14.7488 7.77197 14.9854 7.85639 15.2219 7.85639C15.4589 7.85639 15.6959 7.77188 15.8768 7.60223C16.2382 7.26326 16.2382 6.71388 15.8768 6.37432Z" fill="#2A2A2A"/>
<path d="M8.39506 3.50989C8.21728 3.34322 7.92943 3.34322 7.75217 3.50989L2.36979 8.55747C2.28481 8.63715 2.23663 8.74594 2.23663 8.85948V12.541C2.23663 13.4049 2.98333 14.1053 3.90423 14.1053H6.56905V10.2339H9.5776V14.1053H12.2425C13.1633 14.1053 13.91 13.4049 13.91 12.541V8.85948C13.91 8.74594 13.8623 8.63715 13.7769 8.55747L8.39506 3.50989Z" fill="#2A2A2A"/>
</svg>
