<svg width="15" height="15" viewBox="0 0 15 15" fill="none" xmlns="http://www.w3.org/2000/svg">
<path d="M14.9676 11.6223C14.9251 11.4944 14.6552 11.3061 14.158 11.0577C14.0233 10.9795 13.8313 10.8731 13.583 10.7381C13.3344 10.6031 13.1088 10.4788 12.9065 10.3651C12.7038 10.2515 12.5139 10.1414 12.3365 10.035C12.3081 10.0137 12.2193 9.95169 12.0702 9.84848C11.9209 9.74557 11.795 9.66919 11.6918 9.61938C11.5889 9.56986 11.4876 9.54494 11.3882 9.54494C11.2462 9.54494 11.0688 9.6462 10.8558 9.84848C10.6428 10.051 10.4474 10.271 10.27 10.5092C10.0925 10.7472 9.90422 10.9672 9.70556 11.1696C9.50661 11.3721 9.34314 11.4733 9.21545 11.4733C9.15134 11.4733 9.07142 11.4554 8.97563 11.4201C8.87989 11.3846 8.80705 11.3542 8.75705 11.3297C8.7075 11.3047 8.62246 11.2551 8.50164 11.1803C8.38059 11.1057 8.31328 11.0649 8.2991 11.0577C7.32615 10.5179 6.4917 9.89994 5.79562 9.20415C5.09976 8.50795 4.48177 7.67358 3.94203 6.70052C3.93494 6.6863 3.894 6.6188 3.81949 6.49813C3.74486 6.37735 3.69512 6.29223 3.67027 6.24238C3.64542 6.19272 3.61523 6.11988 3.57979 6.02402C3.54434 5.92816 3.52654 5.84831 3.52654 5.78432C3.52654 5.65656 3.62777 5.49312 3.8302 5.29424C4.03259 5.09547 4.25281 4.90719 4.49065 4.72976C4.72867 4.55234 4.94867 4.35696 5.15114 4.14398C5.35353 3.93088 5.45472 3.75341 5.45472 3.6114C5.45472 3.51203 5.42987 3.41073 5.38021 3.30778C5.3305 3.20461 5.25416 3.07871 5.15114 2.92949C5.04808 2.78035 4.98595 2.69166 4.96461 2.66311C4.85819 2.48568 4.74823 2.29572 4.63446 2.09329C4.52069 1.8909 4.39651 1.66531 4.26151 1.41676C4.12662 1.16833 4.02016 0.976497 3.94195 0.841571C3.69352 0.344517 3.50535 0.0745153 3.37747 0.0320524C3.32773 0.0107463 3.25311 0 3.15378 0C2.96191 0 2.71161 0.0354479 2.40269 0.106568C2.09366 0.177575 1.85049 0.252053 1.67291 0.3303C1.3178 0.479368 0.941416 0.912579 0.543652 1.62978C0.181449 2.29725 0.000366211 2.95789 0.000366211 3.61121C0.000366211 3.80282 0.0127916 3.98924 0.0376425 4.17051C0.0624934 4.35159 0.106897 4.55581 0.170889 4.78312C0.23477 5.01036 0.2863 5.17917 0.325256 5.28909C0.364249 5.39909 0.437047 5.59615 0.543615 5.88033C0.650034 6.16443 0.714026 6.33835 0.735332 6.40227C0.983878 7.09832 1.27862 7.7197 1.61948 8.26661C2.1803 9.17564 2.94564 10.1151 3.91505 11.0846C4.88449 12.054 5.82375 12.8193 6.73286 13.3803C7.27969 13.7212 7.9013 14.0159 8.59724 14.2646C8.66119 14.2858 8.83511 14.3496 9.11911 14.4564C9.40321 14.5629 9.60034 14.6357 9.71034 14.6748C9.82038 14.7139 9.98922 14.7654 10.2163 14.8294C10.4438 14.8934 10.6478 14.9378 10.8289 14.9629C11.0101 14.9874 11.1966 15 11.3882 15C12.0415 15 12.7022 14.8188 13.3698 14.4567C14.0869 14.0591 14.52 13.6826 14.6691 13.3272C14.7476 13.1498 14.8219 12.9066 14.8929 12.5976C14.9641 12.2887 14.9995 12.0384 14.9995 11.8466C14.9997 11.7468 14.989 11.6724 14.9676 11.6223Z" fill="black"/>
</svg>
