<svg width="17" height="18" viewBox="0 0 17 18" fill="none" xmlns="http://www.w3.org/2000/svg">
<path d="M16.6558 14.9957L13.0629 11.4022C13.9361 10.1875 14.4162 8.73602 14.4162 7.20812C14.4162 5.28357 13.667 3.4736 12.3042 2.11202C10.9444 0.751018 9.13327 0 7.20754 0C5.28239 0 3.47184 0.749255 2.11084 2.11202C0.749842 3.47243 0 5.28298 0 7.20812C0 9.13327 0.749255 10.9432 2.11084 12.3054C3.47184 13.6664 5.2818 14.4174 7.20754 14.4174C8.73484 14.4174 10.1852 13.9397 11.401 13.0641L14.9939 16.6575C15.2243 16.8873 15.524 17.0019 15.8248 17.0019C16.1263 17.0019 16.4266 16.8873 16.6558 16.6575C17.1147 16.198 17.1147 15.4546 16.6558 14.9957ZM3.77331 10.6429C2.85539 9.72503 2.3506 8.50448 2.3506 7.20754C2.3506 5.91059 2.85539 4.69122 3.77331 3.77331C4.69063 2.85539 5.91 2.35002 7.20754 2.35002C8.50507 2.35002 9.72503 2.85539 10.6424 3.77331C11.5603 4.69122 12.0656 5.91118 12.0656 7.20812C12.0656 8.50507 11.5609 9.72503 10.6424 10.6435C9.72444 11.5614 8.50566 12.0656 7.20754 12.0656C5.90942 12.0656 4.68945 11.5603 3.77331 10.6429Z" fill="black"/>
</svg>
